<svg width="24" height="24" viewBox="0 0 24 24" fill="none" xmlns="http://www.w3.org/2000/svg">
<path d="M19.5001 4.49999C18.5399 3.54004 17.2378 3.00076 15.8801 3.00076C14.5223 3.00076 13.2202 3.54004 12.2601 4.49999L4.50006 12.26C4.01321 12.7328 3.62521 13.2977 3.35864 13.9218C3.09207 14.5459 2.95224 15.2168 2.94728 15.8955C2.94232 16.5741 3.07233 17.247 3.32975 17.8749C3.58717 18.5029 3.96687 19.0734 4.44676 19.5533C4.92665 20.0332 5.49715 20.4129 6.1251 20.6703C6.75305 20.9277 7.42591 21.0577 8.10456 21.0528C8.78321 21.0478 9.4541 20.908 10.0782 20.6414C10.7023 20.3748 11.2672 19.9868 11.7401 19.5L19.5001 11.74C20.46 10.7798 20.9993 9.47771 20.9993 8.11999C20.9993 6.76227 20.46 5.46014 19.5001 4.49999ZM10.3201 18.09C9.72409 18.6533 8.93512 18.9672 8.11506 18.9672C7.295 18.9672 6.50603 18.6533 5.91006 18.09C5.3281 17.5037 5.00152 16.7111 5.00152 15.885C5.00152 15.0589 5.3281 14.2663 5.91006 13.68L9.09006 10.5L13.5001 14.91L10.3201 18.09ZM18.0901 10.32L14.9101 13.5L10.5001 9.08999L13.6801 5.90999C14.2711 5.35631 15.0542 5.05414 15.864 5.06734C16.6737 5.08055 17.4466 5.4081 18.0193 5.98075C18.592 6.55341 18.9195 7.3263 18.9327 8.13605C18.9459 8.94581 18.6437 9.72896 18.0901 10.32Z" fill="black"/>
</svg>
