<svg width="10" height="20" viewBox="0 0 10 20" fill="none" xmlns="http://www.w3.org/2000/svg">
<path d="M9 8.9999H6V3.4099L6.79 4.2099C6.88296 4.30363 6.99356 4.37802 7.11542 4.42879C7.23728 4.47956 7.36799 4.50569 7.5 4.50569C7.63201 4.50569 7.76272 4.47956 7.88458 4.42879C8.00644 4.37802 8.11704 4.30363 8.21 4.2099C8.30373 4.11693 8.37812 4.00633 8.42889 3.88447C8.47966 3.76261 8.5058 3.63191 8.5058 3.4999C8.5058 3.36788 8.47966 3.23718 8.42889 3.11532C8.37812 2.99346 8.30373 2.88286 8.21 2.7899L5.71 0.289896C5.6149 0.198856 5.50275 0.127491 5.38 0.0798963C5.13654 -0.0201217 4.86346 -0.0201217 4.62 0.0798963C4.49725 0.127491 4.3851 0.198856 4.29 0.289896L1.79 2.7899C1.6017 2.9782 1.49591 3.23359 1.49591 3.4999C1.49591 3.7662 1.6017 4.02159 1.79 4.2099C1.9783 4.3982 2.2337 4.50399 2.5 4.50399C2.7663 4.50399 3.0217 4.3982 3.21 4.2099L4 3.4099V8.9999H1C0.734784 8.9999 0.48043 9.10525 0.292893 9.29279C0.105357 9.48033 0 9.73468 0 9.9999C0 10.2651 0.105357 10.5195 0.292893 10.707C0.48043 10.8945 0.734784 10.9999 1 10.9999H4V16.5899L3.21 15.7899C3.11676 15.6967 3.00607 15.6227 2.88425 15.5722C2.76243 15.5218 2.63186 15.4958 2.5 15.4958C2.36814 15.4958 2.23757 15.5218 2.11575 15.5722C1.99393 15.6227 1.88324 15.6967 1.79 15.7899C1.69676 15.8831 1.6228 15.9938 1.57234 16.1156C1.52188 16.2375 1.49591 16.368 1.49591 16.4999C1.49591 16.6318 1.52188 16.7623 1.57234 16.8841C1.6228 17.006 1.69676 17.1167 1.79 17.2099L4.29 19.7099C4.3851 19.8009 4.49725 19.8723 4.62 19.9199C4.7397 19.9728 4.86913 20.0001 5 20.0001C5.13087 20.0001 5.2603 19.9728 5.38 19.9199C5.50275 19.8723 5.6149 19.8009 5.71 19.7099L8.21 17.2099C8.3983 17.0216 8.50409 16.7662 8.50409 16.4999C8.50409 16.2336 8.3983 15.9782 8.21 15.7899C8.0217 15.6016 7.7663 15.4958 7.5 15.4958C7.2337 15.4958 6.9783 15.6016 6.79 15.7899L6 16.5899V10.9999H9C9.26522 10.9999 9.51957 10.8945 9.70711 10.707C9.89464 10.5195 10 10.2651 10 9.9999C10 9.73468 9.89464 9.48033 9.70711 9.29279C9.51957 9.10525 9.26522 8.9999 9 8.9999Z" fill="black"/>
</svg>
