<svg width="13" height="13" viewBox="0 0 13 13" fill="none" xmlns="http://www.w3.org/2000/svg">
<path d="M3.41 2H11C11.2652 2 11.5196 1.89464 11.7071 1.70711C11.8946 1.51957 12 1.26522 12 1C12 0.734784 11.8946 0.48043 11.7071 0.292893C11.5196 0.105357 11.2652 0 11 0H1C0.869323 0.00157999 0.740222 0.028759 0.62 0.0799999C0.375651 0.181475 0.181475 0.375651 0.0799999 0.62C0.028759 0.740222 0.00157999 0.869323 0 1V11C0 11.2652 0.105357 11.5196 0.292893 11.7071C0.48043 11.8946 0.734784 12 1 12C1.26522 12 1.51957 11.8946 1.70711 11.7071C1.89464 11.5196 2 11.2652 2 11V3.41L10.29 11.71C10.383 11.8037 10.4936 11.8781 10.6154 11.9289C10.7373 11.9797 10.868 12.0058 11 12.0058C11.132 12.0058 11.2627 11.9797 11.3846 11.9289C11.5064 11.8781 11.617 11.8037 11.71 11.71C11.8037 11.617 11.8781 11.5064 11.9289 11.3846C11.9797 11.2627 12.0058 11.132 12.0058 11C12.0058 10.868 11.9797 10.7373 11.9289 10.6154C11.8781 10.4936 11.8037 10.383 11.71 10.29L3.41 2Z" fill="black"/>
</svg>
