<svg width="12" height="20" viewBox="0 0 12 20" fill="none" xmlns="http://www.w3.org/2000/svg">
<path d="M7.79 8.21C7.88296 8.30373 7.99356 8.37812 8.11542 8.42889C8.23728 8.47966 8.36799 8.5058 8.5 8.5058C8.63201 8.5058 8.76272 8.47966 8.88458 8.42889C9.00644 8.37812 9.11704 8.30373 9.21 8.21C9.30373 8.11704 9.37812 8.00644 9.42889 7.88458C9.47966 7.76272 9.5058 7.63201 9.5058 7.5C9.5058 7.36799 9.47966 7.23728 9.42889 7.11542C9.37812 6.99356 9.30373 6.88296 9.21 6.79L6.71 4.29C6.6149 4.19896 6.50275 4.12759 6.38 4.08C6.13654 3.97998 5.86346 3.97998 5.62 4.08C5.49725 4.12759 5.3851 4.19896 5.29 4.29L2.79 6.79C2.6017 6.9783 2.49591 7.2337 2.49591 7.5C2.49591 7.7663 2.6017 8.0217 2.79 8.21C2.9783 8.3983 3.2337 8.50409 3.5 8.50409C3.7663 8.50409 4.0217 8.3983 4.21 8.21L5 7.41V12.59L4.21 11.79C4.0217 11.6017 3.7663 11.4959 3.5 11.4959C3.2337 11.4959 2.9783 11.6017 2.79 11.79C2.6017 11.9783 2.49591 12.2337 2.49591 12.5C2.49591 12.7663 2.6017 13.0217 2.79 13.21L5.29 15.71C5.3851 15.801 5.49725 15.8724 5.62 15.92C5.7397 15.9729 5.86913 16.0002 6 16.0002C6.13087 16.0002 6.2603 15.9729 6.38 15.92C6.50275 15.8724 6.6149 15.801 6.71 15.71L9.21 13.21C9.3983 13.0217 9.50409 12.7663 9.50409 12.5C9.50409 12.2337 9.3983 11.9783 9.21 11.79C9.0217 11.6017 8.7663 11.4959 8.5 11.4959C8.2337 11.4959 7.9783 11.6017 7.79 11.79L7 12.59V7.41L7.79 8.21ZM1 2H11C11.2652 2 11.5196 1.89464 11.7071 1.70711C11.8946 1.51957 12 1.26522 12 1C12 0.734784 11.8946 0.48043 11.7071 0.292893C11.5196 0.105357 11.2652 0 11 0H1C0.734784 0 0.48043 0.105357 0.292893 0.292893C0.105357 0.48043 0 0.734784 0 1C0 1.26522 0.105357 1.51957 0.292893 1.70711C0.48043 1.89464 0.734784 2 1 2ZM11 18H1C0.734784 18 0.48043 18.1054 0.292893 18.2929C0.105357 18.4804 0 18.7348 0 19C0 19.2652 0.105357 19.5196 0.292893 19.7071C0.48043 19.8946 0.734784 20 1 20H11C11.2652 20 11.5196 19.8946 11.7071 19.7071C11.8946 19.5196 12 19.2652 12 19C12 18.7348 11.8946 18.4804 11.7071 18.2929C11.5196 18.1054 11.2652 18 11 18Z" fill="black"/>
</svg>
