<svg width="12" height="20" viewBox="0 0 12 20" fill="none" xmlns="http://www.w3.org/2000/svg">
<path d="M9.29019 14.2899L7.00019 16.5899V3.4099L9.29019 5.7099C9.38315 5.80363 9.49375 5.87802 9.61561 5.92879C9.73747 5.97956 9.86817 6.00569 10.0002 6.00569C10.1322 6.00569 10.2629 5.97956 10.3848 5.92879C10.5066 5.87802 10.6172 5.80363 10.7102 5.7099C10.8039 5.61693 10.8783 5.50633 10.9291 5.38447C10.9798 5.26261 11.006 5.13191 11.006 4.9999C11.006 4.86788 10.9798 4.73718 10.9291 4.61532C10.8783 4.49346 10.8039 4.38286 10.7102 4.2899L6.71019 0.289896C6.61508 0.198856 6.50294 0.127491 6.38019 0.0798963C6.13672 -0.0201217 5.86365 -0.0201217 5.62019 0.0798963C5.49743 0.127491 5.38529 0.198856 5.29019 0.289896L1.29019 4.2899C1.19695 4.38313 1.12299 4.49383 1.07253 4.61565C1.02207 4.73747 0.996094 4.86804 0.996094 4.9999C0.996094 5.13176 1.02207 5.26232 1.07253 5.38415C1.12299 5.50597 1.19695 5.61666 1.29019 5.7099C1.38342 5.80313 1.49411 5.8771 1.61594 5.92756C1.73776 5.97802 1.86833 6.00399 2.00019 6.00399C2.13204 6.00399 2.26261 5.97802 2.38444 5.92756C2.50626 5.8771 2.61695 5.80313 2.71019 5.7099L5.00019 3.4099V16.5899L2.71019 14.2899C2.52188 14.1016 2.26649 13.9958 2.00019 13.9958C1.73388 13.9958 1.47849 14.1016 1.29019 14.2899C1.10188 14.4782 0.996094 14.7336 0.996094 14.9999C0.996094 15.2662 1.10188 15.5216 1.29019 15.7099L5.29019 19.7099C5.38529 19.8009 5.49743 19.8723 5.62019 19.9199C5.73989 19.9728 5.86931 20.0001 6.00019 20.0001C6.13106 20.0001 6.26049 19.9728 6.38019 19.9199C6.50294 19.8723 6.61508 19.8009 6.71019 19.7099L10.7102 15.7099C10.8985 15.5216 11.0043 15.2662 11.0043 14.9999C11.0043 14.7336 10.8985 14.4782 10.7102 14.2899C10.6169 14.1967 10.5063 14.1227 10.3844 14.0722C10.2626 14.0218 10.132 13.9958 10.0002 13.9958C9.73388 13.9958 9.47849 14.1016 9.29019 14.2899Z" fill="black"/>
</svg>
