<svg width="138" height="24" viewBox="0 0 138 24" fill="none" xmlns="http://www.w3.org/2000/svg">
    <path fill-rule="evenodd" clip-rule="evenodd" d="M11.0931 1.25034C14.1591 1.25034 16.9314 2.49164 18.9381 4.49841L18.9423 4.49427C20.949 6.50105 22.1903 9.27743 22.1903 12.3393C22.1903 15.1736 21.127 17.7555 19.3809 19.7168C17.8044 21.4877 15.6652 22.7456 13.2488 23.2214C13.223 23.1746 13.1966 23.1278 13.17 23.0808C13.1284 23.0072 13.0865 22.933 13.0461 22.8573H13.0419C12.922 22.638 12.7895 22.3732 12.6489 22.0835C12.5744 21.9346 12.504 21.7815 12.4378 21.6284C12.4213 21.5911 12.4047 21.5539 12.3882 21.5125C12.3799 21.496 12.3716 21.4753 12.3634 21.4546C11.9537 20.4367 11.3289 18.6037 11.1759 16.5225C11.0228 18.641 10.3731 20.5112 9.96352 21.5125C9.96352 21.5167 9.96145 21.5198 9.95938 21.5229C9.95731 21.526 9.95524 21.5291 9.95524 21.5332C9.93455 21.5787 9.91387 21.6284 9.89731 21.6698C9.88491 21.6904 9.87663 21.7111 9.86836 21.7318L9.86835 21.7318C9.86421 21.7401 9.8518 21.7608 9.8518 21.7608C9.79801 21.8766 9.74422 21.9925 9.68629 22.1084H9.68215C9.56721 22.3497 9.44871 22.5734 9.3431 22.7727L9.31804 22.82C9.30976 22.8366 9.30046 22.8521 9.29115 22.8676C9.28184 22.8831 9.27253 22.8987 9.26425 22.9152L9.20119 23.0269C9.15589 23.1073 9.11392 23.1818 9.07392 23.2504C6.59959 22.7952 4.4149 21.5208 2.80948 19.7209C1.06338 17.7597 0 15.1778 0 12.3434C0 9.27743 1.2413 6.50518 3.24807 4.49841C5.25485 2.49164 8.02709 1.25034 11.0931 1.25034ZM11.1676 14.7143C11.2007 14.2923 11.2586 13.8661 11.3496 13.4399H11.3579C11.3993 13.2413 11.4489 13.0468 11.5027 12.8565L11.6186 12.4841C12.2516 10.5808 13.5219 9.10778 15.3839 8.1106C15.4046 8.09819 15.4335 8.08578 15.4583 8.08578C16.1659 7.63891 17.0183 7.2872 17.9906 7.03067C18.003 7.02819 18.0275 7.02257 18.0613 7.0148C18.1967 6.98369 18.4821 6.91813 18.7437 6.88171C18.4416 6.45967 18.1065 6.06659 17.7423 5.70247C16.0418 4.00189 13.6916 2.95092 11.0972 2.95092C8.50292 2.95092 6.15272 4.00189 4.45214 5.70247C4.09216 6.06245 3.76114 6.45139 3.46323 6.86516C3.78183 6.8914 4.19551 6.99234 4.32284 7.02341L4.32286 7.02341L4.35283 7.03067C5.32519 7.2872 6.17755 7.64304 6.88509 8.08578C6.90991 8.08991 6.93474 8.09819 6.95957 8.1106C8.82152 9.10778 10.0876 10.5808 10.7248 12.4841L10.8407 12.8565C10.8945 13.0468 10.9441 13.2413 10.9855 13.4399C11.0766 13.8661 11.1345 14.2923 11.1676 14.7143ZM7.27404 11.8428L7.27403 11.8428H7.27817C5.45759 10.8373 4.02596 9.2195 3.2398 7.28307L3.21497 7.221C2.25503 8.69401 1.69645 10.4525 1.69645 12.3393C1.69645 14.7143 2.57777 16.8825 4.03009 18.5375C4.94866 19.5885 6.09893 20.4285 7.4023 20.9829C8.31258 18.823 9.45045 15.7115 9.23942 12.9724C9.23115 12.8607 9.21873 12.7448 9.20632 12.6331C8.76359 12.509 8.325 12.3476 7.90296 12.1572L7.41471 11.9173C7.36506 11.8924 7.31955 11.8676 7.27404 11.8428ZM9.12357 12.1241C8.63532 9.64568 6.83544 8.04854 3.7777 7.36996C4.53903 9.08709 5.85481 10.5311 7.49333 11.4332C7.51 11.4421 7.52707 11.4515 7.54441 11.461L7.54454 11.4611L7.54458 11.4611L7.54466 11.4612C7.5832 11.4823 7.62308 11.5042 7.66297 11.5242L7.6878 11.5366C8.14294 11.7766 8.62705 11.9711 9.12357 12.1241ZM14.8377 11.4332C16.4762 10.527 17.792 9.08709 18.5533 7.36996C15.4956 8.04854 13.6957 9.64568 13.2075 12.1241C13.6998 11.9711 14.1839 11.7724 14.6432 11.5366L14.6473 11.5343L14.6515 11.5315C14.657 11.5279 14.6625 11.5242 14.668 11.5242C14.726 11.4952 14.7798 11.4663 14.8377 11.4332ZM13.1247 12.6331C13.1123 12.7448 13.0999 12.8607 13.0916 12.9724H13.0875C12.8764 15.6908 13.9977 18.7734 14.9039 20.9291C16.1535 20.3747 17.2624 19.5513 18.152 18.5375C19.6043 16.8825 20.4856 14.7143 20.4856 12.3393C20.4856 10.5105 19.9601 8.80573 19.0581 7.36168C18.2678 9.26088 16.8527 10.8539 15.057 11.8428C15.0342 11.8552 15.0104 11.8676 14.9867 11.88C14.9629 11.8924 14.9391 11.9048 14.9163 11.9173L14.4281 12.1572C14.006 12.3476 13.5674 12.509 13.1247 12.6331ZM11.1091 4.55214C12.1767 4.55214 13.0456 5.42106 13.0456 6.48858C13.0456 7.5561 12.1767 8.42501 11.1091 8.42501C10.0416 8.42501 9.17272 7.5561 9.17272 6.48858C9.17272 5.42106 10.0416 4.55214 11.1091 4.55214ZM28.5558 11.6518L32.6134 2.77563H33.5391L37.5967 11.6518H36.6077L35.5466 9.28057H30.5932L29.5321 11.6518H28.5558ZM33.0699 3.74592L35.2062 8.51976H30.9337L33.0699 3.74592ZM42.8341 11.7278C42.1578 11.7278 41.5322 11.618 40.9574 11.3982C40.391 11.1699 39.8965 10.8529 39.4738 10.4471C39.0596 10.0414 38.7341 9.56376 38.4974 9.01429C38.2692 8.46481 38.1551 7.86461 38.1551 7.2137C38.1551 6.56278 38.2692 5.96258 38.4974 5.41311C38.7341 4.86363 39.0638 4.38601 39.4865 3.98025C39.9092 3.57448 40.4037 3.2617 40.9701 3.04191C41.5449 2.81367 42.1705 2.69955 42.8467 2.69955C43.523 2.69955 44.1401 2.80522 44.6981 3.01655C45.2644 3.22789 45.7463 3.54912 46.1436 3.98025L45.5603 4.57622C45.1884 4.20426 44.7784 3.93798 44.3303 3.77736C43.8823 3.61675 43.4004 3.53644 42.8848 3.53644C42.3353 3.53644 41.8281 3.62943 41.3632 3.81541C40.9067 3.99293 40.5051 4.25076 40.1585 4.5889C39.8204 4.91858 39.5541 5.30744 39.3597 5.75548C39.1737 6.19506 39.0807 6.68113 39.0807 7.2137C39.0807 7.73781 39.1737 8.22389 39.3597 8.67192C39.5541 9.11995 39.8204 9.51304 40.1585 9.85118C40.5051 10.1809 40.9067 10.4387 41.3632 10.6247C41.8281 10.8022 42.3311 10.891 42.8721 10.891C43.3793 10.891 43.8569 10.8149 44.305 10.6627C44.6188 10.5581 44.9147 10.4035 45.1926 10.199V7.2137H46.0929V10.5993C45.6702 10.9713 45.1757 11.2545 44.6093 11.4489C44.0429 11.6349 43.4512 11.7278 42.8341 11.7278ZM49.6869 10.8402V7.54338H54.2771V6.74453H49.6869V3.58716H54.8351V2.77563H48.7486V11.6518H55.0253V10.8402H49.6869ZM60.5496 2.77563H61.4879V11.6518H60.5496V2.77563ZM64.3759 2.77563H65.1494L70.8682 9.97441V2.77563H71.7938V11.6518H71.0203L65.3143 4.45405V11.6518H64.3759V2.77563ZM78.0096 2.77563H81.3318C82.0842 2.77563 82.7309 2.8982 83.2719 3.14336C83.8129 3.38005 84.2271 3.72664 84.5146 4.18313C84.8104 4.63116 84.9584 5.17641 84.9584 5.81888C84.9584 6.44443 84.8104 6.98545 84.5146 7.44194C84.2271 7.88997 83.8129 8.23657 83.2719 8.48172C83.1625 8.52957 83.0488 8.57258 82.9308 8.61076L85.0978 11.6518H84.0707L82.048 8.79743C81.821 8.82365 81.5823 8.83676 81.3318 8.83676H78.9479V11.6518H78.0096V2.77563ZM81.3065 8.03791H78.9479V3.58716H81.3065C82.1941 3.58716 82.8661 3.78159 83.3226 4.17045C83.7876 4.55931 84.02 5.10879 84.02 5.81888C84.02 6.52051 83.7876 7.06576 83.3226 7.45462C82.8661 7.84348 82.1941 8.03791 81.3065 8.03791ZM88.1114 10.8402V7.54338H92.7016V6.74453H88.1114V3.58716H93.2595V2.77563H87.173V11.6518H93.4497V10.8402H88.1114ZM94.1241 2.77563H95.1385L98.5377 10.5001L101.96 2.77563H102.911L98.9806 11.6518H98.0549L94.1241 2.77563ZM105.138 10.8402V7.54338H109.728V6.74453H105.138V3.58716H110.286V2.77563H104.2V11.6518H110.476V10.8402H105.138ZM112.682 2.77563H116.004C116.757 2.77563 117.403 2.8982 117.944 3.14336C118.485 3.38005 118.9 3.72664 119.187 4.18313C119.483 4.63116 119.631 5.17641 119.631 5.81888C119.631 6.44443 119.483 6.98545 119.187 7.44194C118.9 7.88997 118.485 8.23657 117.944 8.48172C117.835 8.52957 117.721 8.57258 117.603 8.61076L119.77 11.6518H118.743L116.72 8.79743C116.493 8.82365 116.255 8.83676 116.004 8.83676H113.62V11.6518H112.682V2.77563ZM115.979 8.03791H113.62V3.58716H115.979C116.866 3.58716 117.539 3.78159 117.995 4.17045C118.46 4.55931 118.692 5.10879 118.692 5.81888C118.692 6.52051 118.46 7.06576 117.995 7.45462C117.539 7.84348 116.866 8.03791 115.979 8.03791ZM124.293 11.7278C123.633 11.7278 122.999 11.6222 122.391 11.4108C121.79 11.1911 121.326 10.9121 120.996 10.5739L121.364 9.85118C121.676 10.1555 122.095 10.4133 122.619 10.6247C123.152 10.8276 123.709 10.929 124.293 10.929C124.851 10.929 125.303 10.8614 125.649 10.7261C126.005 10.5824 126.262 10.3922 126.423 10.1555C126.592 9.91881 126.677 9.65675 126.677 9.36933C126.677 9.02274 126.575 8.74377 126.372 8.53244C126.178 8.3211 125.92 8.15626 125.599 8.03791C125.278 7.91111 124.923 7.80121 124.534 7.70823C124.145 7.61524 123.756 7.51802 123.367 7.41658C122.978 7.30669 122.619 7.16298 122.289 6.98545C121.968 6.80793 121.706 6.57546 121.503 6.28804C121.309 5.99217 121.211 5.60754 121.211 5.13415C121.211 4.69457 121.326 4.29303 121.554 3.92953C121.79 3.55757 122.15 3.2617 122.632 3.04191C123.113 2.81367 123.731 2.69955 124.483 2.69955C124.982 2.69955 125.476 2.7714 125.967 2.91511C126.457 3.05037 126.879 3.24057 127.235 3.48572L126.918 4.23385C126.537 3.98025 126.131 3.79427 125.7 3.67592C125.278 3.55757 124.868 3.4984 124.47 3.4984C123.938 3.4984 123.498 3.57026 123.152 3.71396C122.805 3.85767 122.547 4.0521 122.378 4.29725C122.217 4.53395 122.137 4.80446 122.137 5.10879C122.137 5.45538 122.234 5.73434 122.429 5.94568C122.632 6.15701 122.894 6.32186 123.215 6.44021C123.545 6.55855 123.904 6.66422 124.293 6.75721C124.682 6.8502 125.066 6.95164 125.447 7.06154C125.835 7.17143 126.191 7.31514 126.512 7.49266C126.841 7.66173 127.103 7.88997 127.298 8.17739C127.501 8.46481 127.602 8.84099 127.602 9.30593C127.602 9.73706 127.484 10.1386 127.247 10.5105C127.011 10.874 126.647 11.1699 126.157 11.3982C125.675 11.618 125.054 11.7278 124.293 11.7278ZM130.585 10.8402V7.54338H135.175V6.74453H130.585V3.58716H135.733V2.77563H129.647V11.6518H135.923V10.8402H130.585ZM30.5117 17.6691V22.7095H31.0981V17.6691H33.0477V17.1619H28.5621V17.6691H30.5117ZM38.6208 17.1619H38.0423V19.6345H34.5711V17.1619H33.9846V22.7095H34.5711V20.1497H38.0423V22.7095H38.6208V17.1619ZM41.018 20.1418V22.2023H44.3545V22.7095H40.4315V17.1619H44.2356V17.6691H41.018V19.6425H43.8869V20.1418H41.018ZM48.3936 20.3557V22.7095H47.8072V17.1619H51.6112V17.6691H48.3936V19.8485H51.2625V20.3557H48.3936ZM53.3849 22.1468C53.7918 22.5536 54.3492 22.757 55.0572 22.757C55.7651 22.757 56.3199 22.5536 56.7214 22.1468C57.1283 21.74 57.3317 21.1377 57.3317 20.3399V17.1619H56.7611V20.3161C56.7611 20.9713 56.6131 21.4547 56.3172 21.7664C56.0214 22.0781 55.6013 22.234 55.0572 22.234C54.5182 22.234 54.1009 22.0781 53.805 21.7664C53.5091 21.4547 53.3612 20.9713 53.3612 20.3161V17.1619H52.7747V20.3399C52.7747 21.1377 52.9781 21.74 53.3849 22.1468ZM60.0684 17.6691V22.7095H60.6548V17.6691H62.6044V17.1619H58.1188V17.6691H60.0684ZM63.9956 22.1468C64.4025 22.5536 64.9599 22.757 65.6678 22.757C66.3758 22.757 66.9306 22.5536 67.3321 22.1468C67.7389 21.74 67.9423 21.1377 67.9423 20.3399V17.1619H67.3717V20.3161C67.3717 20.9713 67.2238 21.4547 66.9279 21.7664C66.6321 22.0781 66.212 22.234 65.6678 22.234C65.1289 22.234 64.7115 22.0781 64.4157 21.7664C64.1198 21.4547 63.9719 20.9713 63.9719 20.3161V17.1619H63.3854V20.3399C63.3854 21.1377 63.5888 21.74 63.9956 22.1468ZM69.7096 17.1619V22.7095H70.296V20.9501H71.786C71.9425 20.9501 72.0917 20.9419 72.2336 20.9255L73.4978 22.7095H74.1397L72.7853 20.8089C72.8591 20.785 72.9302 20.7581 72.9985 20.7282C73.3366 20.575 73.5955 20.3584 73.7752 20.0784C73.9601 19.793 74.0526 19.4549 74.0526 19.0639C74.0526 18.6624 73.9601 18.3216 73.7752 18.0416C73.5955 17.7563 73.3366 17.5397 72.9985 17.3917C72.6604 17.2385 72.2562 17.1619 71.786 17.1619H69.7096ZM70.296 20.4508H71.7701C72.3249 20.4508 72.7449 20.3293 73.0302 20.0863C73.3208 19.8432 73.4661 19.5025 73.4661 19.0639C73.4661 18.6201 73.3208 18.2767 73.0302 18.0337C72.7449 17.7906 72.3249 17.6691 71.7701 17.6691H70.296V20.4508ZM76.0232 20.1418V22.2023H79.3597V22.7095H75.4367V17.1619H79.2408V17.6691H76.0232V19.6425H78.8921V20.1418H76.0232ZM84.0724 22.551C84.4317 22.6884 84.82 22.757 85.2374 22.757C85.6548 22.757 86.0405 22.6884 86.3945 22.551C86.7485 22.4083 87.0549 22.2102 87.3138 21.9566C87.578 21.703 87.7814 21.4045 87.9241 21.0611C88.072 20.7176 88.146 20.3425 88.146 19.9357C88.146 19.5289 88.072 19.1538 87.9241 18.8103C87.7814 18.4669 87.578 18.1684 87.3138 17.9148C87.0549 17.6612 86.7485 17.4657 86.3945 17.3283C86.0405 17.1857 85.6548 17.1144 85.2374 17.1144C84.8148 17.1144 84.4264 17.1857 84.0724 17.3283C83.7185 17.4657 83.4094 17.6638 83.1452 17.9227C82.8863 18.1763 82.6829 18.4748 82.535 18.8183C82.3923 19.1564 82.321 19.5289 82.321 19.9357C82.321 20.3425 82.3923 20.7176 82.535 21.0611C82.6829 21.3992 82.8863 21.6977 83.1452 21.9566C83.4094 22.2102 83.7185 22.4083 84.0724 22.551ZM86.1568 22.0676C85.8767 22.1785 85.5703 22.234 85.2374 22.234C84.9046 22.234 84.5955 22.1785 84.3102 22.0676C84.0249 21.9513 83.7766 21.7902 83.5652 21.5841C83.3592 21.3728 83.1954 21.1271 83.0739 20.8471C82.9576 20.5671 82.8995 20.2633 82.8995 19.9357C82.8995 19.6028 82.9576 19.299 83.0739 19.0243C83.1954 18.7443 83.3592 18.5013 83.5652 18.2952C83.7766 18.0839 84.0249 17.9227 84.3102 17.8118C84.5955 17.6955 84.9046 17.6374 85.2374 17.6374C85.5703 17.6374 85.8767 17.6955 86.1568 17.8118C86.4421 17.9227 86.6877 18.0839 86.8938 18.2952C87.1051 18.5013 87.2689 18.7443 87.3851 19.0243C87.5014 19.299 87.5595 19.6028 87.5595 19.9357C87.5595 20.2686 87.5014 20.575 87.3851 20.855C87.2689 21.1298 87.1051 21.3728 86.8938 21.5841C86.6877 21.7902 86.4421 21.9513 86.1568 22.0676ZM90.0469 20.3557V22.7095H89.4605V17.1619H93.2645V17.6691H90.0469V19.8485H92.9158V20.3557H90.0469ZM97.8732 20.7931V22.7095H98.4518V20.7931L100.671 17.1619H100.084L98.1823 20.2737L96.2803 17.1619H95.6542L97.8732 20.7931ZM102.601 22.551C102.96 22.6884 103.348 22.757 103.766 22.757C104.183 22.757 104.569 22.6884 104.923 22.551C105.277 22.4083 105.583 22.2102 105.842 21.9566C106.106 21.703 106.309 21.4045 106.452 21.0611C106.6 20.7176 106.674 20.3425 106.674 19.9357C106.674 19.5289 106.6 19.1538 106.452 18.8103C106.309 18.4669 106.106 18.1684 105.842 17.9148C105.583 17.6612 105.277 17.4657 104.923 17.3283C104.569 17.1857 104.183 17.1144 103.766 17.1144C103.343 17.1144 102.954 17.1857 102.601 17.3283C102.247 17.4657 101.937 17.6638 101.673 17.9227C101.414 18.1763 101.211 18.4748 101.063 18.8183C100.92 19.1564 100.849 19.5289 100.849 19.9357C100.849 20.3425 100.92 20.7176 101.063 21.0611C101.211 21.3992 101.414 21.6977 101.673 21.9566C101.937 22.2102 102.247 22.4083 102.601 22.551ZM104.685 22.0676C104.405 22.1785 104.098 22.234 103.766 22.234C103.433 22.234 103.124 22.1785 102.838 22.0676C102.553 21.9513 102.305 21.7902 102.093 21.5841C101.887 21.3728 101.723 21.1271 101.602 20.8471C101.486 20.5671 101.428 20.2633 101.428 19.9357C101.428 19.6028 101.486 19.299 101.602 19.0243C101.723 18.7443 101.887 18.5013 102.093 18.2952C102.305 18.0839 102.553 17.9227 102.838 17.8118C103.124 17.6955 103.433 17.6374 103.766 17.6374C104.098 17.6374 104.405 17.6955 104.685 17.8118C104.97 17.9227 105.216 18.0839 105.422 18.2952C105.633 18.5013 105.797 18.7443 105.913 19.0243C106.029 19.299 106.088 19.6028 106.088 19.9357C106.088 20.2686 106.029 20.575 105.913 20.855C105.797 21.1298 105.633 21.3728 105.422 21.5841C105.216 21.7902 104.97 21.9513 104.685 22.0676ZM108.551 22.1468C108.958 22.5536 109.515 22.757 110.223 22.757C110.931 22.757 111.486 22.5536 111.888 22.1468C112.295 21.74 112.498 21.1377 112.498 20.3399V17.1619H111.927V20.3161C111.927 20.9713 111.779 21.4547 111.484 21.7664C111.188 22.0781 110.768 22.234 110.223 22.234C109.685 22.234 109.267 22.0781 108.971 21.7664C108.675 21.4547 108.527 20.9713 108.527 20.3161V17.1619H107.941V20.3399C107.941 21.1377 108.144 21.74 108.551 22.1468ZM116.823 17.1619H116.339V22.7095H116.926V18.2109L120.492 22.7095H120.976V17.1619H120.397V21.6611L116.823 17.1619ZM124.046 22.551C124.406 22.6884 124.794 22.757 125.211 22.757C125.629 22.757 126.014 22.6884 126.368 22.551C126.722 22.4083 127.029 22.2102 127.288 21.9566C127.552 21.703 127.755 21.4045 127.898 21.0611C128.046 20.7176 128.12 20.3425 128.12 19.9357C128.12 19.5289 128.046 19.1538 127.898 18.8103C127.755 18.4669 127.552 18.1684 127.288 17.9148C127.029 17.6612 126.722 17.4657 126.368 17.3283C126.014 17.1857 125.629 17.1144 125.211 17.1144C124.789 17.1144 124.4 17.1857 124.046 17.3283C123.692 17.4657 123.383 17.6638 123.119 17.9227C122.86 18.1763 122.657 18.4748 122.509 18.8183C122.366 19.1564 122.295 19.5289 122.295 19.9357C122.295 20.3425 122.366 20.7176 122.509 21.0611C122.657 21.3992 122.86 21.6977 123.119 21.9566C123.383 22.2102 123.692 22.4083 124.046 22.551ZM126.131 22.0676C125.851 22.1785 125.544 22.234 125.211 22.234C124.878 22.234 124.569 22.1785 124.284 22.0676C123.999 21.9513 123.75 21.7902 123.539 21.5841C123.333 21.3728 123.169 21.1271 123.048 20.8471C122.932 20.5671 122.873 20.2633 122.873 19.9357C122.873 19.6028 122.932 19.299 123.048 19.0243C123.169 18.7443 123.333 18.5013 123.539 18.2952C123.75 18.0839 123.999 17.9227 124.284 17.8118C124.569 17.6955 124.878 17.6374 125.211 17.6374C125.544 17.6374 125.851 17.6955 126.131 17.8118C126.416 17.9227 126.662 18.0839 126.868 18.2952C127.079 18.5013 127.243 18.7443 127.359 19.0243C127.475 19.299 127.533 19.6028 127.533 19.9357C127.533 20.2686 127.475 20.575 127.359 20.855C127.243 21.1298 127.079 21.3728 126.868 21.5841C126.662 21.7902 126.416 21.9513 126.131 22.0676ZM129.264 17.1619H128.662L130.532 22.7095H131.142L132.775 17.9861L134.399 22.7095H135.018L136.888 17.1619H136.325L134.7 21.9649L133.06 17.1619H132.521L130.867 21.9425L129.264 17.1619Z" fill="black" />
</svg>