<svg width="24" height="24" viewBox="0 0 24 24" fill="none" xmlns="http://www.w3.org/2000/svg">
<path d="M4.78998 10.5H2.78998C2.52476 10.5 2.27041 10.6054 2.08287 10.7929C1.89533 10.9804 1.78998 11.2348 1.78998 11.5C1.78998 11.7652 1.89533 12.0196 2.08287 12.2071C2.27041 12.3947 2.52476 12.5 2.78998 12.5H4.78998C5.05519 12.5 5.30955 12.3947 5.49708 12.2071C5.68462 12.0196 5.78998 11.7652 5.78998 11.5C5.78998 11.2348 5.68462 10.9804 5.49708 10.7929C5.30955 10.6054 5.05519 10.5 4.78998 10.5ZM21.57 7.66002V7.60002C21.2835 7.24981 20.9214 6.96894 20.511 6.77845C20.1006 6.58796 19.6524 6.49277 19.2 6.50002H11.27C10.5352 6.49342 9.82352 6.75673 9.26998 7.24002C8.75298 7.69555 8.41307 8.31872 8.30998 9.00002L7.42998 14C7.3543 14.4318 7.37418 14.8749 7.48821 15.2982C7.60224 15.7215 7.80765 16.1147 8.08998 16.45C8.37084 16.7843 8.72126 17.0532 9.11679 17.238C9.51231 17.4228 9.94341 17.519 10.38 17.52H18.32C19.0332 17.5308 19.727 17.2871 20.2768 16.8326C20.8266 16.3781 21.1964 15.7426 21.32 15.04L22.2 10.04C22.2693 9.62132 22.249 9.19268 22.1404 8.78241C22.0318 8.37215 21.8374 7.98959 21.57 7.66002ZM18.83 8.50002L15.43 11.26C15.229 11.422 14.9731 11.5 14.7158 11.4777C14.4586 11.4553 14.22 11.3343 14.05 11.14L11.72 8.50002H18.83ZM19.31 14.67C19.2695 14.9048 19.1465 15.1174 18.9632 15.2696C18.7799 15.4218 18.5482 15.5035 18.31 15.5H10.38C10.2348 15.4988 10.0915 15.466 9.9603 15.4038C9.82905 15.3416 9.71292 15.2516 9.61998 15.14C9.5268 15.029 9.45887 14.8991 9.42088 14.7592C9.38289 14.6194 9.37576 14.4729 9.39998 14.33L10.2 9.80002L12.55 12.46C13.0615 13.0414 13.778 13.4025 14.5496 13.4677C15.3212 13.5329 16.0881 13.2973 16.69 12.81L20.13 10L19.31 14.67ZM5.78998 6.50002H2.78998C2.52476 6.50002 2.27041 6.60538 2.08287 6.79291C1.89533 6.98045 1.78998 7.2348 1.78998 7.50002C1.78998 7.76524 1.89533 8.01959 2.08287 8.20713C2.27041 8.39466 2.52476 8.50002 2.78998 8.50002H5.78998C6.05519 8.50002 6.30955 8.39466 6.49708 8.20713C6.68462 8.01959 6.78998 7.76524 6.78998 7.50002C6.78998 7.2348 6.68462 6.98045 6.49708 6.79291C6.30955 6.60538 6.05519 6.50002 5.78998 6.50002Z" fill="black"/>
</svg>
