<svg width="24" height="24" viewBox="0 0 24 24" fill="none" xmlns="http://www.w3.org/2000/svg">
<path d="M11 2C9.02218 2 7.08879 2.58649 5.44429 3.6853C3.7998 4.78412 2.51808 6.3459 1.7612 8.17317C1.00433 10.0004 0.806292 12.0111 1.19214 13.9509C1.578 15.8907 2.5304 17.6725 3.92893 19.0711C5.32745 20.4696 7.10928 21.422 9.04909 21.8079C10.9889 22.1937 12.9996 21.9957 14.8268 21.2388C16.6541 20.4819 18.2159 19.2002 19.3147 17.5557C20.4135 15.9112 21 13.9778 21 12C21 10.6868 20.7413 9.38642 20.2388 8.17317C19.7362 6.95991 18.9996 5.85752 18.0711 4.92893C17.1425 4.00035 16.0401 3.26375 14.8268 2.7612C13.6136 2.25866 12.3132 2 11 2ZM11 20C9.41775 20 7.87103 19.5308 6.55543 18.6518C5.23984 17.7727 4.21446 16.5233 3.60896 15.0615C3.00346 13.5997 2.84503 11.9911 3.15371 10.4393C3.4624 8.88743 4.22432 7.46197 5.34314 6.34315C6.46196 5.22433 7.88743 4.4624 9.43927 4.15372C10.9911 3.84504 12.5997 4.00346 14.0615 4.60896C15.5233 5.21447 16.7727 6.23984 17.6518 7.55544C18.5308 8.87103 19 10.4177 19 12C19 14.1217 18.1571 16.1566 16.6569 17.6569C15.1566 19.1571 13.1217 20 11 20ZM11 6C10.7348 6 10.4804 6.10536 10.2929 6.29289C10.1054 6.48043 10 6.73478 10 7V11.93L8.63 14.3C8.49739 14.5307 8.46187 14.8047 8.53126 15.0616C8.60065 15.3186 8.76926 15.5374 9 15.67C9.23074 15.8026 9.5047 15.8381 9.76163 15.7687C10.0186 15.6993 10.2374 15.5307 10.37 15.3L11.87 12.7C11.9662 12.5192 12.0046 12.3133 11.98 12.11L12 12V7C12 6.73478 11.8946 6.48043 11.7071 6.29289C11.5196 6.10536 11.2652 6 11 6Z" fill="black"/>
</svg>
