<svg width="512" height="512" viewBox="0 0 512 512" fill="none" xmlns="http://www.w3.org/2000/svg">
    <rect x="0.5" y="0.5" width="511" height="511" rx="49.5" fill="#006272" />
    <path fill-rule="evenodd" clip-rule="evenodd" d="M255.959 34.9941C317.582 34.9941 373.301 59.9428 413.635 100.277L413.718 100.193C454.052 140.527 479 196.329 479 257.869C479 314.835 457.628 366.729 422.533 406.148C390.848 441.741 347.853 467.022 299.287 476.586C298.768 475.646 298.237 474.706 297.702 473.761C296.866 472.281 296.024 470.79 295.212 469.268H295.128C292.717 464.86 290.056 459.538 287.228 453.716C285.731 450.723 284.317 447.646 282.987 444.569C282.654 443.82 282.321 443.072 281.989 442.24C281.823 441.907 281.656 441.492 281.49 441.076C273.257 420.618 260.699 383.777 257.622 341.946C254.545 384.525 241.489 422.115 233.256 442.24C233.256 442.323 233.214 442.386 233.173 442.448C233.131 442.51 233.089 442.573 233.089 442.656C232.674 443.571 232.258 444.569 231.925 445.4C231.676 445.816 231.509 446.232 231.343 446.648C231.26 446.814 231.01 447.23 231.01 447.23L231.01 447.231C229.929 449.559 228.848 451.887 227.684 454.215H227.601C225.29 459.067 222.909 463.562 220.786 467.568C220.617 467.888 220.449 468.205 220.282 468.519C220.116 468.852 219.929 469.164 219.742 469.476C219.555 469.788 219.368 470.099 219.201 470.432C218.764 471.204 218.343 471.952 217.935 472.676C217.024 474.292 216.18 475.79 215.376 477.168C165.645 468.02 121.735 442.406 89.4682 406.231C54.3737 366.812 33.001 314.919 33.001 257.952C33.001 196.329 57.9497 140.61 98.2834 100.277C138.617 59.9428 194.336 34.9941 255.959 34.9941ZM257.456 305.604C258.121 297.122 259.286 288.556 261.115 279.99H261.281C262.113 275.999 263.111 272.09 264.192 268.264L266.521 260.78C279.244 222.525 304.775 192.919 342.198 172.877C342.614 172.628 343.196 172.378 343.695 172.378C357.916 163.397 375.047 156.328 394.591 151.172C394.84 151.122 395.332 151.009 396.011 150.853C398.733 150.228 404.469 148.91 409.726 148.178C403.655 139.696 396.919 131.795 389.601 124.477C355.421 90.2971 308.185 69.1739 256.042 69.1739C203.899 69.1739 156.663 90.2971 122.484 124.477C115.248 131.712 108.595 139.529 102.608 147.845C109.012 148.373 117.326 150.402 119.885 151.026C120.151 151.091 120.355 151.141 120.488 151.172C140.031 156.328 157.162 163.48 171.383 172.378C171.882 172.461 172.381 172.628 172.88 172.877C210.303 192.919 235.751 222.525 248.558 260.78L250.886 268.264C251.967 272.09 252.965 275.999 253.797 279.99C255.626 288.556 256.791 297.122 257.456 305.604ZM182.028 249.387C181.03 248.888 180.115 248.389 179.2 247.89H179.283C142.692 227.681 113.918 195.165 98.117 156.245L97.6181 154.997C78.3244 184.603 67.0975 219.947 67.0975 257.869C67.0975 305.604 84.8111 349.181 114.001 382.446C132.463 403.57 155.582 420.451 181.778 431.595C200.074 388.184 222.944 325.646 218.702 270.593C218.536 268.348 218.287 266.019 218.037 263.774C209.139 261.279 200.323 258.035 191.841 254.21L182.028 249.387ZM216.374 253.545C206.561 203.73 170.385 171.63 108.928 157.991C124.23 192.504 150.676 221.527 183.608 239.657C183.944 239.838 184.288 240.026 184.637 240.218C185.413 240.644 186.215 241.085 187.018 241.486L187.516 241.736C196.664 246.559 206.394 250.468 216.374 253.545ZM331.221 239.657C364.153 221.444 390.599 192.504 405.901 157.991C344.444 171.63 308.268 203.73 298.455 253.545C308.351 250.468 318.081 246.476 327.312 241.736C327.368 241.708 327.423 241.671 327.479 241.634C327.589 241.56 327.7 241.486 327.811 241.486C328.975 240.904 330.057 240.322 331.221 239.657ZM296.792 263.774C296.542 266.019 296.293 268.348 296.126 270.593H296.043C291.802 325.231 314.339 387.187 332.551 430.514C357.666 419.37 379.954 402.821 397.834 382.446C427.024 349.181 444.737 305.604 444.737 257.869C444.737 221.111 434.176 186.849 416.046 157.825C400.162 195.996 371.721 228.014 335.629 247.89C335.171 248.139 334.693 248.389 334.215 248.638C333.737 248.888 333.258 249.137 332.801 249.387L322.988 254.21C314.505 258.035 305.69 261.279 296.792 263.774ZM256.277 101.358C277.733 101.358 295.197 118.822 295.197 140.278C295.197 161.733 277.733 179.197 256.277 179.197C234.821 179.197 217.357 161.733 217.357 140.278C217.357 118.822 234.821 101.358 256.277 101.358Z" fill="white" />
    <rect x="0.5" y="0.5" width="511" height="511" rx="49.5" stroke="#404245" stroke-linecap="round" stroke-linejoin="round" stroke-dasharray="4 5" />
</svg>
