<svg width="24" height="24" viewBox="0 0 24 24" fill="none" xmlns="http://www.w3.org/2000/svg">
<path d="M21.7099 20.29L20.7799 19.36L20.6899 19.26L20.6299 19.19L20.1299 18.69L19.9999 18.62L14.8199 13.42L14.7299 13.34L11.5299 10.13L11.4299 10L3.70994 2.29C3.6167 2.19676 3.50601 2.1228 3.38419 2.07234C3.26237 2.02188 3.1318 1.99591 2.99994 1.99591C2.86808 1.99591 2.73751 2.02188 2.61569 2.07234C2.49387 2.1228 2.38318 2.19676 2.28994 2.29C2.10164 2.47831 1.99585 2.7337 1.99585 3C1.99585 3.2663 2.10164 3.5217 2.28994 3.71L3.28994 4.71C3.09854 5.11308 2.99947 5.55379 2.99994 6V18C2.99994 18.7957 3.31601 19.5587 3.87862 20.1213C4.44123 20.6839 5.20429 21 5.99994 21H17.9999C18.4414 20.9947 18.8757 20.8886 19.2699 20.69C19.2699 20.69 19.2699 20.69 19.3199 20.69L20.2699 21.69C20.3629 21.7837 20.4735 21.8581 20.5954 21.9089C20.7172 21.9597 20.8479 21.9858 20.9799 21.9858C21.112 21.9858 21.2427 21.9597 21.3645 21.9089C21.4864 21.8581 21.597 21.7837 21.6899 21.69C21.8759 21.5057 21.9821 21.2558 21.9858 20.9941C21.9896 20.7323 21.8905 20.4795 21.7099 20.29ZM4.99994 6.41L8.23994 9.65C7.99446 9.77657 7.76875 9.93827 7.56994 10.13L4.99994 12.71V6.41ZM5.99994 19C5.73472 19 5.48037 18.8946 5.29283 18.7071C5.1053 18.5196 4.99994 18.2652 4.99994 18V15.54L8.99994 11.54C9.14963 11.4015 9.34604 11.3246 9.54994 11.3246C9.75385 11.3246 9.95025 11.4015 10.0999 11.54L17.5899 19H5.99994ZM9.65994 5H17.9999C18.2652 5 18.5195 5.10536 18.707 5.2929C18.8946 5.48043 18.9999 5.73479 18.9999 6V11.94C18.9067 11.8468 18.796 11.7728 18.6742 11.7223C18.5524 11.6719 18.4218 11.6459 18.2899 11.6459C18.1581 11.6459 18.0275 11.6719 17.9057 11.7223C17.7839 11.7728 17.6732 11.8468 17.5799 11.94C17.4867 12.0332 17.4127 12.1439 17.3623 12.2658C17.3118 12.3876 17.2858 12.5181 17.2858 12.65C17.2858 12.7819 17.3118 12.9124 17.3623 13.0343C17.4127 13.1561 17.4867 13.2668 17.5799 13.36L19.3199 15.1C19.4129 15.1937 19.5235 15.2681 19.6454 15.3189C19.7672 15.3697 19.8979 15.3958 20.0299 15.3958C20.162 15.3958 20.2927 15.3697 20.4145 15.3189C20.5364 15.2681 20.647 15.1937 20.7399 15.1C20.8338 15.0054 20.9078 14.8929 20.9576 14.7693C21.0075 14.6456 21.032 14.5133 21.0299 14.38V6C21.0299 5.20435 20.7139 4.44129 20.1513 3.87868C19.5887 3.31607 18.8256 3 18.0299 3H9.65994C9.39472 3 9.14037 3.10536 8.95283 3.2929C8.7653 3.48043 8.65994 3.73479 8.65994 4C8.65994 4.26522 8.7653 4.51957 8.95283 4.70711C9.14037 4.89465 9.39472 5 9.65994 5Z" fill="black"/>
</svg>
