<svg width="16" height="20" viewBox="0 0 16 20" fill="none" xmlns="http://www.w3.org/2000/svg">
<path d="M8.92 13C8.90003 12.9386 8.86958 12.8811 8.83 12.83L8.71 12.68C8.61703 12.5863 8.50643 12.5119 8.38457 12.4611C8.26272 12.4103 8.13201 12.3842 8 12.3842C7.86799 12.3842 7.73728 12.4103 7.61542 12.4611C7.49356 12.5119 7.38296 12.5863 7.29 12.68C7.24233 12.7233 7.20183 12.774 7.17 12.83C7.13042 12.8811 7.09997 12.9386 7.08 13C7.05104 13.0601 7.03084 13.1241 7.02 13.19C7.0151 13.2532 7.0151 13.3168 7.02 13.38C7.01652 13.5144 7.04389 13.6478 7.1 13.77C7.20176 14.0132 7.39543 14.2064 7.63889 14.3075C7.88234 14.4086 8.15588 14.4095 8.4 14.31C8.52153 14.2556 8.63308 14.1813 8.73 14.09C8.81995 13.9978 8.89125 13.8892 8.94 13.77C8.99253 13.6467 9.01974 13.514 9.02 13.38C9.0249 13.3168 9.0249 13.2532 9.02 13.19C8.99663 13.1219 8.9629 13.0578 8.92 13ZM8 5.36C7.73478 5.36 7.48043 5.46536 7.29289 5.65289C7.10536 5.84043 7 6.09478 7 6.36V9.36C7 9.62522 7.10536 9.87957 7.29289 10.0671C7.48043 10.2546 7.73478 10.36 8 10.36C8.26521 10.36 8.51957 10.2546 8.7071 10.0671C8.89464 9.87957 9 9.62522 9 9.36V6.36C9 6.09478 8.89464 5.84043 8.7071 5.65289C8.51957 5.46536 8.26521 5.36 8 5.36ZM15.63 1.65C15.5138 1.55602 15.3781 1.48927 15.2327 1.45466C15.0873 1.42005 14.9361 1.41846 14.79 1.45C13.7214 1.67394 12.6183 1.6768 11.5486 1.45838C10.4789 1.23997 9.46524 0.804914 8.57 0.18C8.4026 0.0638722 8.20373 0.00164413 8 0.00164413C7.79627 0.00164413 7.59739 0.0638722 7.43 0.18C6.53475 0.804914 5.52107 1.23997 4.45136 1.45838C3.38166 1.6768 2.27856 1.67394 1.21 1.45C1.06394 1.41846 0.912663 1.42005 0.767299 1.45466C0.621934 1.48927 0.486174 1.55602 0.369998 1.65C0.253977 1.74412 0.160519 1.86304 0.0964904 1.99802C0.0324618 2.13299 -0.00050982 2.2806 -1.84791e-06 2.43V9.88C-0.000890884 11.3137 0.340771 12.727 0.996533 14.002C1.65229 15.277 2.60318 16.3768 3.77 17.21L7.42 19.81C7.58936 19.9306 7.79209 19.9954 8 19.9954C8.2079 19.9954 8.41064 19.9306 8.58 19.81L12.23 17.21C13.3968 16.3768 14.3477 15.277 15.0035 14.002C15.6592 12.727 16.0009 11.3137 16 9.88V2.43C16.0005 2.2806 15.9675 2.13299 15.9035 1.99802C15.8395 1.86304 15.746 1.74412 15.63 1.65ZM14 9.88C14.0008 10.9948 13.7353 12.0936 13.2256 13.085C12.716 14.0765 11.977 14.9318 11.07 15.58L8 17.77L4.93 15.58C4.02303 14.9318 3.28398 14.0765 2.77435 13.085C2.26471 12.0936 1.99923 10.9948 2 9.88V3.58C4.09643 3.75943 6.19604 3.27302 8 2.19C9.80396 3.27302 11.9036 3.75943 14 3.58V9.88Z" fill="black"/>
</svg>
