<svg width="68" height="24" viewBox="0 0 68 24" fill="none" xmlns="http://www.w3.org/2000/svg">
<path fill-rule="evenodd" clip-rule="evenodd" d="M11.998 1.51286C14.8996 1.51286 17.5231 2.68758 19.4222 4.5867L19.4262 4.58279C21.3253 6.48191 22.5 9.10936 22.5 12.007C22.5 14.6893 21.4937 17.1327 19.8412 18.9887C18.3493 20.6647 16.3249 21.855 14.0381 22.3053C14.0137 22.2611 13.9887 22.2168 13.9635 22.1723C13.9242 22.1026 13.8845 22.0324 13.8463 21.9608H13.8423C13.7288 21.7532 13.6035 21.5026 13.4704 21.2285C13.3999 21.0876 13.3333 20.9427 13.2707 20.7978C13.255 20.7625 13.2393 20.7273 13.2237 20.6882C13.2158 20.6725 13.208 20.6529 13.2002 20.6334L13.2002 20.6333C12.8125 19.6701 12.2212 17.9354 12.0764 15.9658C11.9315 17.9706 11.3167 19.7405 10.9291 20.6882C10.9291 20.6921 10.9271 20.695 10.9251 20.6979C10.9232 20.7009 10.9212 20.7038 10.9212 20.7077C10.9016 20.7508 10.8821 20.7978 10.8664 20.8369C10.8547 20.8565 10.8468 20.8761 10.839 20.8957C10.8351 20.9035 10.8233 20.9231 10.8233 20.9231C10.7724 21.0327 10.7215 21.1424 10.6667 21.252H10.6628C10.554 21.4805 10.4419 21.6921 10.3419 21.8808C10.3339 21.8958 10.326 21.9107 10.3182 21.9255C10.3104 21.9412 10.3016 21.9559 10.2927 21.9705C10.2839 21.9852 10.2751 21.9999 10.2673 22.0156C10.2467 22.0519 10.2268 22.0872 10.2076 22.1213C10.1647 22.1974 10.125 22.2679 10.0872 22.3328C7.74557 21.902 5.67807 20.696 4.15877 18.9926C2.50634 17.1366 1.5 14.6932 1.5 12.0109C1.5 9.10936 2.67472 6.48583 4.57384 4.5867C6.47296 2.68758 9.09649 1.51286 11.998 1.51286ZM12.0685 14.2546C12.0999 13.8552 12.1547 13.4519 12.2408 13.0486H12.2486C12.2878 12.8606 12.3348 12.6766 12.3857 12.4965L12.4953 12.144C13.0944 10.3428 14.2966 8.94882 16.0586 8.00513C16.0782 7.99338 16.1056 7.98163 16.1291 7.98163C16.7987 7.55874 17.6054 7.2259 18.5255 6.98313C18.5373 6.98078 18.5604 6.97546 18.5924 6.96811C18.7206 6.93867 18.9907 6.87663 19.2382 6.84216C18.9524 6.44276 18.6352 6.07076 18.2906 5.72618C16.6812 4.11682 14.4571 3.12222 12.002 3.12222C9.5468 3.12222 7.32267 4.11682 5.71331 5.72618C5.37265 6.06685 5.05939 6.43492 4.77746 6.8265C5.07899 6.85133 5.4705 6.94686 5.59098 6.97626C5.60349 6.97931 5.61308 6.98165 5.61934 6.98313C6.53953 7.2259 7.34617 7.56265 8.01576 7.98163C8.03925 7.98555 8.06275 7.99338 8.08624 8.00513C9.84831 8.94882 11.0465 10.3428 11.6495 12.144L11.7592 12.4965C11.8101 12.6766 11.8571 12.8606 11.8962 13.0486C11.9824 13.4519 12.0372 13.8552 12.0685 14.2546ZM8.51697 11.6076C8.46998 11.5841 8.42691 11.5606 8.38383 11.5371H8.38775C6.66483 10.5856 5.30999 9.05454 4.56601 7.22198L4.54251 7.16325C3.63407 8.55725 3.10545 10.2214 3.10545 12.007C3.10545 14.2546 3.93949 16.3065 5.31391 17.8727C6.1832 18.8673 7.27177 19.6622 8.50522 20.1869C9.36668 18.1429 10.4435 15.1983 10.2438 12.6061C10.236 12.5004 10.2242 12.3907 10.2125 12.285C9.79349 12.1675 9.37843 12.0148 8.97902 11.8347L8.51697 11.6076ZM10.1342 11.8034C9.67211 9.45786 7.96877 7.94639 5.07505 7.30421C5.79554 8.92924 7.04074 10.2958 8.59137 11.1495C8.60718 11.158 8.62338 11.1669 8.63983 11.1759C8.67634 11.196 8.71412 11.2167 8.75191 11.2356L8.77541 11.2473C9.20614 11.4745 9.66428 11.6585 10.1342 11.8034ZM15.5418 11.1495C17.0924 10.2919 18.3376 8.92924 19.0581 7.30421C16.1644 7.94639 14.461 9.45786 13.999 11.8034C14.4649 11.6585 14.9231 11.4705 15.3577 11.2473C15.3603 11.246 15.363 11.2443 15.3656 11.2426C15.3708 11.2391 15.376 11.2356 15.3812 11.2356C15.436 11.2082 15.4869 11.1808 15.5418 11.1495ZM13.9207 12.285C13.9089 12.3907 13.8972 12.5004 13.8893 12.6061H13.8854C13.6857 15.1787 14.7469 18.0959 15.6044 20.136C16.787 19.6113 17.8364 18.8321 18.6783 17.8727C20.0527 16.3065 20.8867 14.2546 20.8867 12.007C20.8867 10.2762 20.3894 8.66297 19.5358 7.29638C18.7879 9.0937 17.4487 10.6013 15.7493 11.5371C15.7278 11.5489 15.7052 11.5606 15.6827 11.5724C15.6602 11.5841 15.6377 11.5958 15.6162 11.6076L15.1541 11.8347C14.7547 12.0148 14.3396 12.1675 13.9207 12.285ZM12.0137 4.6376C13.024 4.6376 13.8463 5.4599 13.8463 6.47016C13.8463 7.48042 13.024 8.30272 12.0137 8.30272C11.0034 8.30272 10.1811 7.48042 10.1811 6.47016C10.1811 5.4599 11.0034 4.6376 12.0137 4.6376Z" fill="#191919"/>
<path d="M25.048 21L32.728 4.20001H34.48L42.16 21H40.288L33.232 5.23201H33.952L26.896 21H25.048ZM28.072 16.512L28.6 15.072H38.368L38.896 16.512H28.072Z" fill="#191919"/>
<path d="M44.9391 21V4.20001H46.7151V21H44.9391Z" fill="#191919"/>
<path d="M52.1813 21V4.20001H58.4693C59.8933 4.20001 61.1173 4.43201 62.1413 4.89601C63.1653 5.34401 63.9493 6.00001 64.4933 6.86401C65.0533 7.71201 65.3333 8.74401 65.3333 9.96001C65.3333 11.144 65.0533 12.168 64.4933 13.032C63.9493 13.88 63.1653 14.536 62.1413 15C61.1173 15.448 59.8933 15.672 58.4693 15.672H53.1653L53.9573 14.856V21H52.1813ZM63.6533 21L59.3333 14.904H61.2533L65.5973 21H63.6533ZM53.9573 15L53.1653 14.16H58.4213C60.1013 14.16 61.3733 13.792 62.2373 13.056C63.1173 12.32 63.5573 11.288 63.5573 9.96001C63.5573 8.61601 63.1173 7.57601 62.2373 6.84001C61.3733 6.10401 60.1013 5.73601 58.4213 5.73601H53.1653L53.9573 4.89601V15Z" fill="#191919"/>
</svg>
