<svg width="24" height="24" viewBox="0 0 24 24" fill="none" xmlns="http://www.w3.org/2000/svg">
<g id="bill / 24 / Outline">
<path id="Vector" d="M13 15.9999H6.99999C6.73478 15.9999 6.48042 16.1053 6.29289 16.2928C6.10535 16.4804 5.99999 16.7347 5.99999 16.9999C5.99999 17.2652 6.10535 17.5195 6.29289 17.7071C6.48042 17.8946 6.73478 17.9999 6.99999 17.9999H13C13.2652 17.9999 13.5196 17.8946 13.7071 17.7071C13.8946 17.5195 14 17.2652 14 16.9999C14 16.7347 13.8946 16.4804 13.7071 16.2928C13.5196 16.1053 13.2652 15.9999 13 15.9999ZM8.99999 9.99995H11C11.2652 9.99995 11.5196 9.89459 11.7071 9.70705C11.8946 9.51952 12 9.26516 12 8.99995C12 8.73473 11.8946 8.48038 11.7071 8.29284C11.5196 8.1053 11.2652 7.99995 11 7.99995H8.99999C8.73478 7.99995 8.48042 8.1053 8.29289 8.29284C8.10535 8.48038 7.99999 8.73473 7.99999 8.99995C7.99999 9.26516 8.10535 9.51952 8.29289 9.70705C8.48042 9.89459 8.73478 9.99995 8.99999 9.99995V9.99995ZM21 11.9999H18V2.99995C18.0007 2.82374 17.9548 2.65047 17.867 2.49769C17.7792 2.34491 17.6526 2.21805 17.5 2.12995C17.348 2.04218 17.1755 1.99597 17 1.99597C16.8245 1.99597 16.652 2.04218 16.5 2.12995L13.5 3.84995L10.5 2.12995C10.348 2.04218 10.1755 1.99597 9.99999 1.99597C9.82446 1.99597 9.65201 2.04218 9.49999 2.12995L6.49999 3.84995L3.49999 2.12995C3.34797 2.04218 3.17553 1.99597 2.99999 1.99597C2.82446 1.99597 2.65201 2.04218 2.49999 2.12995C2.34739 2.21805 2.22077 2.34491 2.13297 2.49769C2.04517 2.65047 1.99929 2.82374 1.99999 2.99995V18.9999C1.99999 19.7956 2.31606 20.5587 2.87867 21.1213C3.44128 21.6839 4.20434 21.9999 4.99999 21.9999H19C19.7956 21.9999 20.5587 21.6839 21.1213 21.1213C21.6839 20.5587 22 19.7956 22 18.9999V12.9999C22 12.7347 21.8946 12.4804 21.7071 12.2928C21.5196 12.1053 21.2652 11.9999 21 11.9999ZM4.99999 19.9999C4.73478 19.9999 4.48042 19.8946 4.29289 19.7071C4.10535 19.5195 3.99999 19.2652 3.99999 18.9999V4.72995L5.99999 5.86995C6.15433 5.95056 6.32587 5.99266 6.49999 5.99266C6.67411 5.99266 6.84566 5.95056 6.99999 5.86995L9.99999 4.14995L13 5.86995C13.1543 5.95056 13.3259 5.99266 13.5 5.99266C13.6741 5.99266 13.8457 5.95056 14 5.86995L16 4.72995V18.9999C16.0027 19.3411 16.0636 19.6793 16.18 19.9999H4.99999ZM20 18.9999C20 19.2652 19.8946 19.5195 19.7071 19.7071C19.5196 19.8946 19.2652 19.9999 19 19.9999C18.7348 19.9999 18.4804 19.8946 18.2929 19.7071C18.1053 19.5195 18 19.2652 18 18.9999V13.9999H20V18.9999ZM13 11.9999H6.99999C6.73478 11.9999 6.48042 12.1053 6.29289 12.2928C6.10535 12.4804 5.99999 12.7347 5.99999 12.9999C5.99999 13.2652 6.10535 13.5195 6.29289 13.7071C6.48042 13.8946 6.73478 13.9999 6.99999 13.9999H13C13.2652 13.9999 13.5196 13.8946 13.7071 13.7071C13.8946 13.5195 14 13.2652 14 12.9999C14 12.7347 13.8946 12.4804 13.7071 12.2928C13.5196 12.1053 13.2652 11.9999 13 11.9999Z" fill="black"/>
</g>
</svg>
