<svg width="24" height="24" viewBox="0 0 24 24" fill="none" xmlns="http://www.w3.org/2000/svg">
<path d="M13.4099 12L17.2099 8.21002C17.3037 8.11706 17.3781 8.00645 17.4288 7.8846C17.4796 7.76274 17.5057 7.63203 17.5057 7.50002C17.5057 7.36801 17.4796 7.2373 17.4288 7.11544C17.3781 6.99358 17.3037 6.88298 17.2099 6.79002L12.7099 2.29002C12.6148 2.19898 12.5027 2.12761 12.3799 2.08002C12.1365 1.98 11.8634 1.98 11.6199 2.08002C11.3756 2.18149 11.1814 2.37567 11.0799 2.62002C11.0287 2.74024 11.0015 2.86934 10.9999 3.00002V9.59002L8.20994 6.79002C8.1167 6.69678 8.00601 6.62282 7.88419 6.57236C7.76237 6.5219 7.6318 6.49593 7.49994 6.49593C7.36808 6.49593 7.23751 6.5219 7.11569 6.57236C6.99387 6.62282 6.88318 6.69678 6.78994 6.79002C6.6967 6.88326 6.62274 6.99395 6.57228 7.11577C6.52182 7.23759 6.49585 7.36816 6.49585 7.50002C6.49585 7.63188 6.52182 7.76245 6.57228 7.88427C6.62274 8.00609 6.6967 8.11678 6.78994 8.21002L10.5899 12L6.78994 15.79C6.6967 15.8833 6.62274 15.9939 6.57228 16.1158C6.52182 16.2376 6.49585 16.3682 6.49585 16.5C6.49585 16.6319 6.52182 16.7624 6.57228 16.8843C6.62274 17.0061 6.6967 17.1168 6.78994 17.21C6.88318 17.3033 6.99387 17.3772 7.11569 17.4277C7.23751 17.4781 7.36808 17.5041 7.49994 17.5041C7.6318 17.5041 7.76237 17.4781 7.88419 17.4277C8.00601 17.3772 8.1167 17.3033 8.20994 17.21L10.9999 14.41V21C11.0015 21.1307 11.0287 21.2598 11.0799 21.38C11.1814 21.6244 11.3756 21.8185 11.6199 21.92C11.7396 21.9729 11.8691 22.0003 11.9999 22.0003C12.1308 22.0003 12.2602 21.9729 12.3799 21.92C12.5027 21.8724 12.6148 21.8011 12.7099 21.71L17.2099 17.21C17.3037 17.1171 17.3781 17.0065 17.4288 16.8846C17.4796 16.7627 17.5057 16.632 17.5057 16.5C17.5057 16.368 17.4796 16.2373 17.4288 16.1154C17.3781 15.9936 17.3037 15.883 17.2099 15.79L13.4099 12ZM12.9999 5.41002L15.0899 7.50002L12.9999 9.59002V5.41002ZM12.9999 18.59V14.41L15.0899 16.5L12.9999 18.59Z" fill="black"/>
</svg>
