<svg width="18" height="22" viewBox="0 0 18 22" fill="none" xmlns="http://www.w3.org/2000/svg">
<path d="M9 9.00008C8.73479 9.00008 8.48043 9.10544 8.2929 9.29298C8.10536 9.48051 8 9.73487 8 10.0001V12.0001C8 12.2653 8.10536 12.5197 8.2929 12.7072C8.48043 12.8947 8.73479 13.0001 9 13.0001C9.26522 13.0001 9.51957 12.8947 9.70711 12.7072C9.89465 12.5197 10 12.2653 10 12.0001V10.0001C10 9.73487 9.89465 9.48051 9.70711 9.29298C9.51957 9.10544 9.26522 9.00008 9 9.00008ZM17.46 8.68008C17.3274 7.21469 16.8167 5.80881 15.9778 4.59999C15.139 3.39117 14.0007 2.4208 12.6743 1.78383C11.348 1.14685 9.87897 0.86509 8.41106 0.9661C6.94316 1.06711 5.52661 1.54743 4.3 2.36008C3.2492 3.06273 2.36706 3.98938 1.71695 5.07347C1.06684 6.15757 0.664898 7.37219 0.540003 8.63008C0.417485 9.87974 0.574677 11.141 1.00017 12.3224C1.42567 13.5037 2.1088 14.5755 3 15.4601L8.3 20.7701C8.39297 20.8638 8.50357 20.9382 8.62543 20.989C8.74729 21.0397 8.87799 21.0659 9.01 21.0659C9.14201 21.0659 9.27272 21.0397 9.39458 20.989C9.51644 20.9382 9.62704 20.8638 9.72 20.7701L15 15.4601C15.8912 14.5755 16.5743 13.5037 16.9998 12.3224C17.4253 11.141 17.5825 9.87974 17.46 8.63008V8.68008ZM13.6 14.0501L9 18.6501L4.4 14.0501C3.72209 13.3721 3.20281 12.5524 2.87947 11.6498C2.55614 10.7473 2.43679 9.78428 2.53 8.83008C2.62382 7.86119 2.93177 6.92524 3.43157 6.08992C3.93138 5.25461 4.61056 4.54079 5.42 4.00008C6.48095 3.29532 7.72631 2.91938 9 2.91938C10.2737 2.91938 11.5191 3.29532 12.58 4.00008C13.387 4.5387 14.0647 5.24936 14.5644 6.08102C15.064 6.91268 15.3733 7.84468 15.47 8.81008C15.5663 9.76751 15.4484 10.7344 15.125 11.6406C14.8016 12.5469 14.2807 13.3699 13.6 14.0501ZM9.92 6.57008C9.90003 6.50865 9.86958 6.45113 9.83 6.40008L9.71 6.25008C9.59062 6.13673 9.4451 6.0546 9.28635 6.01098C9.1276 5.96737 8.96054 5.96363 8.8 6.00008H8.62L8.44 6.09008L8.29 6.22008L8.17 6.37008C8.13042 6.42113 8.09997 6.47865 8.08 6.54008C8.04955 6.59963 8.02927 6.66385 8.02 6.73008C8.00342 6.81907 7.99671 6.90962 8 7.00008C7.99653 7.13449 8.02389 7.2679 8.08 7.39008C8.13095 7.5081 8.202 7.61638 8.29 7.71008C8.38518 7.80352 8.49714 7.87816 8.62 7.93008C8.8648 8.02308 9.13521 8.02308 9.38 7.93008C9.50154 7.87573 9.61308 7.80136 9.71 7.71008C9.798 7.61638 9.86906 7.5081 9.92 7.39008C9.97254 7.26676 9.99975 7.13413 10 7.00008C10.0049 6.93684 10.0049 6.87332 10 6.81008C9.9907 6.72531 9.96342 6.64349 9.92 6.57008Z" fill="#191919"/>
</svg>
