<svg width="24" height="24" viewBox="0 0 24 24" fill="none" xmlns="http://www.w3.org/2000/svg">
<path d="M10.2599 5L11.9999 4L18.9999 8L15.8499 9.83C15.6212 9.96192 15.4539 10.1789 15.3846 10.4337C15.3153 10.6885 15.3496 10.9604 15.4799 11.19C15.5453 11.3046 15.6326 11.4051 15.737 11.4858C15.8413 11.5665 15.9606 11.6257 16.0879 11.6601C16.2153 11.6945 16.3482 11.7034 16.4789 11.6862C16.6097 11.669 16.7358 11.6261 16.8499 11.56L21.4999 8.87C21.6538 8.78278 21.7818 8.6563 21.8709 8.50346C21.96 8.35062 22.0069 8.17689 22.0069 8C22.0069 7.8231 21.96 7.64937 21.8709 7.49653C21.7818 7.34369 21.6538 7.21721 21.4999 7.13L12.4999 1.93C12.3479 1.84223 12.1755 1.79602 11.9999 1.79602C11.8244 1.79602 11.652 1.84223 11.4999 1.93L9.25994 3.23C9.14535 3.29533 9.04482 3.38268 8.96414 3.48703C8.88345 3.59137 8.82421 3.71065 8.78982 3.83799C8.75543 3.96533 8.74657 4.09822 8.76375 4.229C8.78094 4.35977 8.82382 4.48586 8.88994 4.6C8.95272 4.7171 9.03821 4.82053 9.14141 4.90422C9.24462 4.98791 9.36347 5.0502 9.49102 5.08744C9.61857 5.12468 9.75226 5.13613 9.88428 5.12111C10.0163 5.1061 10.144 5.06493 10.2599 5ZM3.70994 2.29C3.6167 2.19676 3.50601 2.1228 3.38419 2.07234C3.26237 2.02188 3.1318 1.9959 2.99994 1.9959C2.86808 1.9959 2.73751 2.02188 2.61569 2.07234C2.49387 2.1228 2.38318 2.19676 2.28994 2.29C2.10164 2.4783 1.99585 2.73369 1.99585 3C1.99585 3.2663 2.10164 3.52169 2.28994 3.71L4.53994 6L2.53994 7.17C2.38604 7.25721 2.25804 7.38369 2.16898 7.53653C2.07992 7.68937 2.03299 7.8631 2.03299 8.04C2.03299 8.21689 2.07992 8.39062 2.16898 8.54346C2.25804 8.6963 2.38604 8.82278 2.53994 8.91L11.5399 14.11C11.692 14.1978 11.8644 14.244 12.0399 14.244C12.2155 14.244 12.3879 14.1978 12.5399 14.11L12.6399 14.05L13.7099 15.12L12.0399 16.12L3.49994 11.13C3.38569 11.0643 3.25963 11.0218 3.12895 11.0049C2.99827 10.9879 2.86553 10.9969 2.73831 11.0313C2.6111 11.0656 2.49189 11.1247 2.38751 11.2051C2.28312 11.2855 2.1956 11.3857 2.12994 11.5C2.06428 11.6142 2.02177 11.7403 2.00482 11.871C1.98788 12.0017 1.99685 12.1344 2.0312 12.2616C2.06556 12.3888 2.12464 12.508 2.20507 12.6124C2.28549 12.7168 2.38569 12.8043 2.49994 12.87L11.4999 18.07C11.6523 18.1564 11.8248 18.2012 11.9999 18.2C12.1751 18.2012 12.3475 18.1564 12.4999 18.07L15.1299 16.55L16.1999 17.62L11.9999 20L3.49994 15.13C3.2692 14.9974 2.99524 14.9619 2.73831 15.0313C2.48139 15.1006 2.26255 15.2693 2.12994 15.5C1.99733 15.7307 1.96182 16.0047 2.03121 16.2616C2.10059 16.5185 2.2692 16.7374 2.49994 16.87L11.4999 22.07C11.652 22.1578 11.8244 22.204 11.9999 22.204C12.1755 22.204 12.3479 22.1578 12.4999 22.07L17.6699 19.07L20.2899 21.7C20.3829 21.7937 20.4935 21.8681 20.6154 21.9189C20.7372 21.9697 20.8679 21.9958 20.9999 21.9958C21.132 21.9958 21.2627 21.9697 21.3845 21.9189C21.5064 21.8681 21.617 21.7937 21.7099 21.7C21.8037 21.607 21.8781 21.4964 21.9288 21.3746C21.9796 21.2527 22.0057 21.122 22.0057 20.99C22.0057 20.858 21.9796 20.7273 21.9288 20.6054C21.8781 20.4836 21.8037 20.373 21.7099 20.28L3.70994 2.29ZM4.99994 8L5.99994 7.42L8.74994 10.17L4.99994 8ZM20.4999 11.13L18.3799 12.35C18.1492 12.4826 17.9806 12.7014 17.9112 12.9584C17.8418 13.2153 17.8773 13.4893 18.0099 13.72C18.1425 13.9507 18.3614 14.1193 18.6183 14.1887C18.8752 14.2581 19.1492 14.2226 19.3799 14.09L21.4999 12.87C21.6142 12.8043 21.7144 12.7168 21.7948 12.6124C21.8752 12.508 21.9343 12.3888 21.9687 12.2616C22.003 12.1344 22.012 12.0017 21.9951 11.871C21.9781 11.7403 21.9356 11.6142 21.8699 11.5C21.8043 11.3857 21.7168 11.2855 21.6124 11.2051C21.508 11.1247 21.3888 11.0656 21.2616 11.0313C21.1344 10.9969 21.0016 10.9879 20.8709 11.0049C20.7403 11.0218 20.6142 11.0643 20.4999 11.13Z" fill="black"/>
</svg>
