<svg width="24" height="24" viewBox="0 0 24 24" fill="none" xmlns="http://www.w3.org/2000/svg">
<path d="M21 11.24C20.9951 11.2136 20.9951 11.1864 21 11.16V10.97C21 10.74 20.94 10.51 20.9 10.28C20.8943 10.2268 20.8943 10.1732 20.9 10.12C20.85 9.87 20.78 9.63 20.71 9.39C20.2824 8.00973 19.5256 6.75416 18.5047 5.73154C17.4838 4.70892 16.2295 3.94992 14.85 3.52H14.77C14.55 3.45 14.32 3.39 14.09 3.34H13.91C13.7282 3.30357 13.5446 3.27686 13.36 3.26H13.12V3C13.12 2.73478 13.0146 2.48043 12.8271 2.29289C12.6396 2.10536 12.3852 2 12.12 2C11.8548 2 11.6004 2.10536 11.4129 2.29289C11.2254 2.48043 11.12 2.73478 11.12 3V3.06C10.7834 3.10047 10.4495 3.16057 10.12 3.24C9.90994 3.27921 9.7028 3.33266 9.5 3.4H9.37C9.12 3.48 8.89 3.57 8.65 3.66C7.4152 4.14891 6.305 4.90708 5.40025 5.8793C4.4955 6.85151 3.819 8.01328 3.42 9.28C3.41655 9.30655 3.41655 9.33345 3.42 9.36C3.3427 9.5961 3.27926 9.83651 3.23 10.08V10.24C3.17667 10.48 3.13667 10.73 3.11 10.99C3.11 10.99 3.11 11.06 3.11 11.1C3.11 11.14 3.11 11.16 3.11 11.19C3.11 11.22 3.11 11.19 3.11 11.24C3.11 11.49 3.11 11.74 3.11 12C3.11 12.2652 3.21536 12.5196 3.40289 12.7071C3.59043 12.8946 3.84478 13 4.11 13H11.11V19C11.11 19.2652 11.0046 19.5196 10.8171 19.7071C10.6296 19.8946 10.3752 20 10.11 20C9.84478 20 9.59043 19.8946 9.40289 19.7071C9.21536 19.5196 9.11 19.2652 9.11 19C9.11 18.7348 9.00464 18.4804 8.81711 18.2929C8.62957 18.1054 8.37522 18 8.11 18C7.84478 18 7.59043 18.1054 7.40289 18.2929C7.21536 18.4804 7.11 18.7348 7.11 19C7.11 19.7956 7.42607 20.5587 7.98868 21.1213C8.55129 21.6839 9.31435 22 10.11 22C10.9057 22 11.6687 21.6839 12.2313 21.1213C12.7939 20.5587 13.11 19.7956 13.11 19V13H20.11C20.3752 13 20.6296 12.8946 20.8171 12.7071C21.0046 12.5196 21.11 12.2652 21.11 12C21 11.74 21 11.49 21 11.24ZM8 11H5.08C5.08 11 5.08 10.93 5.08 10.89C5.08 10.85 5.08 10.61 5.16 10.48C5.24 10.35 5.16 10.35 5.16 10.29C5.16 10.23 5.24 9.97 5.29 9.81V9.73C5.61005 8.82311 6.11353 7.99189 6.76904 7.2882C7.42456 6.58452 8.21804 6.02345 9.1 5.64C8.43 7.35076 8.05796 9.16363 8 11ZM10 11C10.19 7.09 11.44 5 12 5C12.56 5 13.79 7.09 14 11H10ZM16 11C15.942 9.16363 15.57 7.35076 14.9 5.64C15.7701 6.03569 16.5499 6.60538 17.1914 7.31396C17.8329 8.02254 18.3225 8.85499 18.63 9.76C18.6905 9.93352 18.7406 10.1105 18.78 10.29C18.7755 10.3399 18.7755 10.3901 18.78 10.44C18.78 10.58 18.84 10.73 18.86 10.87C18.88 11.01 18.86 10.94 18.86 10.98L16 11Z" fill="black"/>
</svg>
