<svg width="24" height="24" viewBox="0 0 24 24" fill="none" xmlns="http://www.w3.org/2000/svg">
<path d="M6.92002 5.51L3.71002 2.29C3.61678 2.19676 3.50609 2.1228 3.38426 2.07234C3.26244 2.02188 3.13187 1.99591 3.00002 1.99591C2.86816 1.99591 2.73759 2.02188 2.61577 2.07234C2.49394 2.1228 2.38325 2.19676 2.29002 2.29C2.10171 2.47831 1.99592 2.7337 1.99592 3C1.99592 3.2663 2.10171 3.5217 2.29002 3.71L4.56002 6C3.40698 6.65548 2.34464 7.45897 1.40002 8.39C1.21376 8.57737 1.10922 8.83082 1.10922 9.095C1.10922 9.35919 1.21376 9.61264 1.40002 9.8C1.49263 9.89449 1.60307 9.96966 1.72495 10.0212C1.84683 10.0727 1.97771 10.0995 2.11002 10.1C2.37235 10.0989 2.62375 9.99475 2.81002 9.81C3.76296 8.86497 4.85577 8.07234 6.05002 7.46L7.54002 9C6.30075 9.5417 5.17448 10.3118 4.22002 11.27C4.11602 11.3604 4.03183 11.4713 3.97273 11.5958C3.91364 11.7203 3.8809 11.8556 3.87658 11.9934C3.87226 12.1311 3.89645 12.2682 3.94763 12.3961C3.99882 12.5241 4.07589 12.6401 4.17401 12.7368C4.27214 12.8335 4.3892 12.909 4.51785 12.9583C4.64649 13.0077 4.78396 13.0299 4.92161 13.0237C5.05926 13.0174 5.19413 12.9827 5.31776 12.9219C5.44138 12.861 5.5511 12.7753 5.64002 12.67C6.60958 11.7048 7.79085 10.9789 9.09002 10.55L10.71 12.16C9.32369 12.4267 8.04896 13.1024 7.05002 14.1C6.94602 14.1904 6.86183 14.3013 6.80273 14.4258C6.74364 14.5503 6.7109 14.6856 6.70658 14.8234C6.70226 14.9611 6.72645 15.0982 6.77763 15.2261C6.82882 15.3541 6.90589 15.4701 7.00401 15.5668C7.10214 15.6635 7.2192 15.739 7.34785 15.7883C7.47649 15.8377 7.61396 15.8599 7.75161 15.8537C7.88926 15.8474 8.02413 15.8127 8.14776 15.7519C8.27138 15.691 8.3811 15.6053 8.47002 15.5C8.93072 15.0299 9.4797 14.6555 10.0855 14.3981C10.6912 14.1407 11.3419 14.0054 12 14C12.211 14.0006 12.4216 14.0173 12.63 14.05L20.29 21.71C20.383 21.8037 20.4936 21.8781 20.6154 21.9289C20.7373 21.9797 20.868 22.0058 21 22.0058C21.132 22.0058 21.2627 21.9797 21.3846 21.9289C21.5065 21.8781 21.6171 21.8037 21.71 21.71C21.8037 21.617 21.8781 21.5064 21.9289 21.3846C21.9797 21.2627 22.0058 21.132 22.0058 21C22.0058 20.868 21.9797 20.7373 21.9289 20.6154C21.8781 20.4936 21.8037 20.383 21.71 20.29L6.92002 5.51ZM12 16C11.4067 16 10.8267 16.1759 10.3333 16.5056C9.83996 16.8352 9.45544 17.3038 9.22838 17.852C9.00131 18.4001 8.9419 19.0033 9.05766 19.5853C9.17342 20.1672 9.45914 20.7018 9.87869 21.1213C10.2983 21.5409 10.8328 21.8266 11.4147 21.9424C11.9967 22.0581 12.5999 21.9987 13.1481 21.7716C13.6962 21.5446 14.1648 21.1601 14.4944 20.6667C14.8241 20.1734 15 19.5933 15 19C15 18.2044 14.6839 17.4413 14.1213 16.8787C13.5587 16.3161 12.7957 16 12 16ZM12 20C11.8022 20 11.6089 19.9414 11.4444 19.8315C11.28 19.7216 11.1518 19.5654 11.0761 19.3827C11.0004 19.2 10.9806 18.9989 11.0192 18.8049C11.0578 18.6109 11.1531 18.4327 11.2929 18.2929C11.4328 18.153 11.6109 18.0578 11.8049 18.0192C11.9989 17.9806 12.2 18.0004 12.3827 18.0761C12.5654 18.1518 12.7216 18.28 12.8315 18.4444C12.9414 18.6089 13 18.8022 13 19C13 19.2652 12.8947 19.5196 12.7071 19.7071C12.5196 19.8946 12.2652 20 12 20ZM22.61 8.39C21.012 6.79342 19.0741 5.57837 16.9408 4.83554C14.8075 4.09271 12.534 3.84127 10.29 4.1C10.1587 4.11445 10.0315 4.15462 9.9157 4.21822C9.79991 4.28182 9.69777 4.3676 9.61513 4.47068C9.44822 4.67884 9.37084 4.94479 9.40001 5.21C9.42919 5.47522 9.56252 5.71798 9.77069 5.88489C9.97886 6.0518 10.2448 6.12918 10.51 6.1C12.456 5.87791 14.427 6.09601 16.2773 6.73817C18.1277 7.38034 19.81 8.43015 21.2 9.81C21.3883 9.99698 21.6432 10.1015 21.9086 10.1006C22.1739 10.0996 22.428 9.99331 22.615 9.805C22.802 9.6167 22.9065 9.36183 22.9056 9.09647C22.9046 8.8311 22.7983 8.57698 22.61 8.39ZM18.36 12.63C18.5501 12.7953 18.7956 12.8827 19.0474 12.8748C19.2992 12.8669 19.5388 12.7643 19.7182 12.5874C19.8976 12.4105 20.0036 12.1725 20.0151 11.9208C20.0265 11.6692 19.9426 11.4225 19.78 11.23C18.4442 9.8788 16.7742 8.90576 14.94 8.41C14.8093 8.35953 14.6695 8.33707 14.5296 8.34409C14.3897 8.35111 14.2528 8.38745 14.1278 8.45075C14.0029 8.51405 13.8926 8.6029 13.8042 8.71155C13.7157 8.82019 13.6511 8.9462 13.6145 9.08142C13.5779 9.21664 13.5701 9.35804 13.5916 9.49646C13.6131 9.63489 13.6635 9.76725 13.7394 9.88496C13.8154 10.0027 13.9152 10.1031 14.0324 10.1798C14.1497 10.2565 14.2817 10.3076 14.42 10.33C15.9102 10.743 17.2677 11.5355 18.36 12.63Z" fill="black"/>
</svg>
