<svg width="18" height="16" viewBox="0 0 18 16" fill="none" xmlns="http://www.w3.org/2000/svg">
<path d="M0.342547 2.77795C0.568697 2.23198 0.900169 1.7359 1.31804 1.31804C1.7359 0.900169 2.23198 0.568697 2.77795 0.342547C3.32392 0.116398 3.90909 0 4.50004 0C5.09099 0 5.67616 0.116398 6.22213 0.342547C6.7681 0.568697 7.26417 0.900169 7.68204 1.31804L9.00004 2.63604L10.318 1.31804C11.162 0.47412 12.3066 1.14352e-05 13.5 1.14441e-05C14.6935 1.1453e-05 15.8381 0.47412 16.682 1.31804C17.526 2.16196 18.0001 3.30656 18.0001 4.50004C18.0001 5.69352 17.526 6.83812 16.682 7.68204L9.00004 15.364L1.31804 7.68204C0.900169 7.26417 0.568697 6.7681 0.342547 6.22213C0.116398 5.67616 0 5.09099 0 4.50004C0 3.90909 0.116398 3.32392 0.342547 2.77795Z" fill="#006272"/>
</svg>
