<svg width="16" height="16" viewBox="0 0 16 16" fill="none" xmlns="http://www.w3.org/2000/svg">
<path fill-rule="evenodd" clip-rule="evenodd" d="M7.99869 1.00858C9.93306 1.00858 11.6821 1.79172 12.9482 3.0578L12.9508 3.05519C14.2169 4.32128 15 6.07291 15 8.00466C15 9.79284 14.3291 11.4218 13.2275 12.6592C12.2329 13.7764 10.8833 14.57 9.35875 14.8702C9.34247 14.8407 9.3258 14.8112 9.30904 14.7816C9.28279 14.7351 9.25633 14.6883 9.23084 14.6405H9.22823C9.15253 14.5022 9.06899 14.3351 8.98024 14.1523C8.93325 14.0584 8.88887 13.9618 8.8471 13.8652C8.83666 13.8417 8.82622 13.8182 8.81577 13.7921C8.81055 13.7817 8.80533 13.7686 8.80011 13.7556C8.54167 13.1134 8.14749 11.9569 8.0509 10.6439C7.95432 11.9804 7.54447 13.1604 7.28603 13.7921C7.28603 13.7947 7.28473 13.7967 7.28342 13.7986C7.28212 13.8006 7.28081 13.8025 7.28081 13.8052C7.26776 13.8339 7.25471 13.8652 7.24427 13.8913C7.23643 13.9044 7.23121 13.9174 7.22599 13.9305C7.22338 13.9357 7.21555 13.9487 7.21555 13.9487C7.18161 14.0218 7.14768 14.0949 7.11113 14.168H7.10852C7.036 14.3203 6.96124 14.4614 6.8946 14.5872C6.88928 14.5972 6.88401 14.6072 6.8788 14.617C6.87358 14.6275 6.86771 14.6372 6.86183 14.647C6.85596 14.6568 6.85008 14.6666 6.84486 14.6771C6.83113 14.7013 6.81789 14.7248 6.80508 14.7475C6.77649 14.7982 6.75002 14.8452 6.72478 14.8885C5.16371 14.6013 3.78538 13.7973 2.77252 12.6618C1.67089 11.4244 1 9.79545 1 8.00727C1 6.07291 1.78314 4.32389 3.04923 3.0578C4.31531 1.79172 6.06433 1.00858 7.99869 1.00858ZM8.04568 9.50308C8.06657 9.23681 8.10311 8.96793 8.16054 8.69905H8.16577C8.19187 8.57375 8.2232 8.45106 8.25713 8.33097L8.33023 8.09603C8.72963 6.89521 9.53105 5.96588 10.7058 5.33675C10.7188 5.32892 10.7371 5.32109 10.7528 5.32109C11.1991 5.03916 11.7369 4.81727 12.3504 4.65542C12.3582 4.65385 12.3736 4.65031 12.395 4.64541C12.4804 4.62578 12.6605 4.58442 12.8255 4.56144C12.6349 4.29517 12.4235 4.04718 12.1937 3.81745C11.1208 2.74455 9.63808 2.08148 8.00131 2.08148C6.36454 2.08148 4.88178 2.74455 3.80888 3.81745C3.58176 4.04456 3.37293 4.28995 3.18497 4.551C3.38599 4.56755 3.64699 4.63124 3.72732 4.65084C3.73566 4.65288 3.74205 4.65444 3.74622 4.65542C4.35969 4.81727 4.89745 5.04177 5.34384 5.32109C5.3595 5.3237 5.37516 5.32892 5.39083 5.33675C6.56554 5.96588 7.36435 6.89521 7.76636 8.09603L7.83946 8.33097C7.87339 8.45106 7.90472 8.57375 7.93082 8.69905C7.98825 8.96793 8.0248 9.23681 8.04568 9.50308ZM5.67798 7.73839C5.64665 7.72273 5.61794 7.70707 5.58922 7.69141H5.59183C4.44322 7.05706 3.54 6.03636 3.04401 4.81466L3.02834 4.7755C2.42271 5.70483 2.0703 6.81428 2.0703 8.00466C2.0703 9.50308 2.62633 10.871 3.54261 11.9152C4.12213 12.5782 4.84785 13.1082 5.67015 13.458C6.24445 12.0953 6.96233 10.1322 6.8292 8.40407C6.82398 8.33358 6.81615 8.26049 6.80832 8.19001C6.52899 8.11169 6.25228 8.00988 5.98602 7.8898L5.67798 7.73839ZM6.75611 7.86892C6.44807 6.30524 5.31251 5.2976 3.38337 4.86948C3.8637 5.95283 4.69383 6.86388 5.72758 7.43297C5.73812 7.43865 5.74892 7.44458 5.7599 7.45061C5.78423 7.46397 5.80942 7.47781 5.83461 7.4904L5.85027 7.49823C6.13742 7.64964 6.44285 7.77233 6.75611 7.86892ZM10.3612 7.43297C11.3949 6.86127 12.2251 5.95283 12.7054 4.86948C10.7762 5.2976 9.64069 6.30524 9.33265 7.86892C9.6433 7.77233 9.94872 7.64703 10.2385 7.49823C10.2402 7.49736 10.242 7.4962 10.2437 7.49504C10.2472 7.49272 10.2507 7.4904 10.2541 7.4904C10.2907 7.47213 10.3246 7.45385 10.3612 7.43297ZM9.28044 8.19001C9.27261 8.26049 9.26478 8.33358 9.25956 8.40407H9.25695C9.12381 10.1192 9.83125 12.064 10.4029 13.424C11.1913 13.0742 11.8909 12.5547 12.4522 11.9152C13.3685 10.871 13.9245 9.50308 13.9245 8.00466C13.9245 6.85083 13.593 5.77531 13.0239 4.86426C12.5253 6.06247 11.6325 7.0675 10.4995 7.69141C10.4852 7.69924 10.4702 7.70707 10.4552 7.7149C10.4401 7.72273 10.4251 7.73056 10.4108 7.73839L10.1027 7.8898C9.83647 8.00988 9.55976 8.11169 9.28044 8.19001ZM8.00914 3.09174C8.68264 3.09174 9.23084 3.63994 9.23084 4.31344C9.23084 4.98694 8.68264 5.53515 8.00914 5.53515C7.33563 5.53515 6.78743 4.98694 6.78743 4.31344C6.78743 3.63994 7.33563 3.09174 8.00914 3.09174Z" fill="#191919"/>
</svg>
