<svg width="90" height="32" viewBox="0 0 90 32" fill="none" xmlns="http://www.w3.org/2000/svg">
<path fill-rule="evenodd" clip-rule="evenodd" d="M15.9974 2.01715C19.8661 2.01715 23.3642 3.58344 25.8963 6.11561L25.9015 6.11038C28.4337 8.64255 30 12.1458 30 16.0093C30 19.5857 28.6582 22.8436 26.455 25.3183C24.4658 27.5529 21.7665 29.14 18.7175 29.7405C18.6849 29.6814 18.6516 29.6224 18.6181 29.5631C18.5656 29.4702 18.5127 29.3766 18.4617 29.281H18.4565C18.3051 29.0043 18.138 28.6702 17.9605 28.3047C17.8665 28.1167 17.7777 27.9236 17.6942 27.7304C17.6733 27.6834 17.6524 27.6364 17.6315 27.5842C17.6211 27.5633 17.6107 27.5372 17.6002 27.5111C17.0833 26.2268 16.295 23.9139 16.1018 21.2877C15.9086 23.9609 15.0889 26.3207 14.5721 27.5842C14.5721 27.5894 14.5695 27.5933 14.5668 27.5973C14.5642 27.6012 14.5616 27.6051 14.5616 27.6103C14.5355 27.6677 14.5094 27.7304 14.4885 27.7826C14.4729 27.8087 14.4624 27.8348 14.452 27.8609C14.4468 27.8714 14.4311 27.8975 14.4311 27.8975C14.3632 28.0436 14.2954 28.1898 14.2223 28.336H14.217C14.072 28.6406 13.9225 28.9228 13.7892 29.1743C13.7786 29.1944 13.768 29.2143 13.7576 29.234C13.7472 29.2549 13.7354 29.2745 13.7237 29.2941C13.7119 29.3136 13.7002 29.3332 13.6897 29.3541C13.6623 29.4026 13.6358 29.4496 13.6102 29.495C13.553 29.5965 13.5 29.6905 13.4496 29.777C10.3274 29.2027 7.57076 27.5946 5.54503 25.3235C3.34179 22.8488 2 19.5909 2 16.0145C2 12.1458 3.56629 8.64777 6.09845 6.11561C8.63062 3.58344 12.1287 2.01715 15.9974 2.01715ZM16.0914 19.0062C16.1331 18.4736 16.2062 17.9359 16.3211 17.3981H16.3315C16.3837 17.1475 16.4464 16.9021 16.5143 16.6619L16.6605 16.1921C17.4593 13.7904 19.0621 11.9318 21.4115 10.6735C21.4376 10.6578 21.4742 10.6422 21.5055 10.6422C22.3983 10.0783 23.4738 9.63453 24.7007 9.31083C24.7164 9.30771 24.7472 9.30062 24.7899 9.29081C24.9608 9.25156 25.3209 9.16883 25.6509 9.12288C25.2698 8.59034 24.8469 8.09435 24.3875 7.63491C22.2417 5.48909 19.2762 4.16297 16.0026 4.16297C12.7291 4.16297 9.76357 5.48909 7.61775 7.63491C7.16353 8.08913 6.74585 8.5799 6.36994 9.102C6.77198 9.1351 7.29399 9.26248 7.45463 9.30168C7.47131 9.30575 7.4841 9.30887 7.49245 9.31083C8.71937 9.63453 9.79489 10.0835 10.6877 10.6422C10.719 10.6474 10.7503 10.6578 10.7817 10.6735C13.1311 11.9318 14.7287 13.7904 15.5327 16.1921L15.6789 16.6619C15.7468 16.9021 15.8094 17.1475 15.8616 17.3981C15.9765 17.9359 16.0496 18.4736 16.0914 19.0062ZM11.356 15.4768C11.2933 15.4455 11.2359 15.4141 11.1784 15.3828H11.1837C8.88644 14.1141 7.07999 12.0727 6.08801 9.62931L6.05668 9.551C4.84542 11.4097 4.14059 13.6286 4.14059 16.0093C4.14059 19.0062 5.25266 21.7419 7.08521 23.8303C8.24427 25.1565 9.69569 26.2163 11.3403 26.9159C12.4889 24.1906 13.9247 20.2644 13.6584 16.8081C13.648 16.6672 13.6323 16.521 13.6166 16.38C13.058 16.2234 12.5046 16.0198 11.972 15.7796L11.356 15.4768ZM13.5122 15.7378C12.8961 12.6105 10.625 10.5952 6.76673 9.73895C7.72739 11.9057 9.38766 13.7278 11.4552 14.8659C11.4762 14.8773 11.4978 14.8892 11.5198 14.9012C11.5685 14.9279 11.6188 14.9556 11.6692 14.9808L11.7005 14.9965C12.2748 15.2993 12.8857 15.5447 13.5122 15.7378ZM20.7224 14.8659C22.7899 13.7225 24.4501 11.9057 25.4108 9.73895C21.5525 10.5952 19.2814 12.6105 18.6653 15.7378C19.2866 15.5447 19.8974 15.2941 20.477 14.9965C20.4805 14.9947 20.4839 14.9924 20.4874 14.9901C20.4944 14.9854 20.5013 14.9808 20.5083 14.9808C20.5814 14.9443 20.6493 14.9077 20.7224 14.8659ZM18.5609 16.38C18.5452 16.521 18.5296 16.6672 18.5191 16.8081H18.5139C18.2476 20.2383 19.6625 24.1279 20.8059 26.848C22.3826 26.1484 23.7818 25.1095 24.9043 23.8303C26.7369 21.7419 27.849 19.0062 27.849 16.0093C27.849 13.7017 27.1859 11.5506 26.0477 9.72851C25.0505 12.1249 23.265 14.135 20.9991 15.3828C20.9704 15.3985 20.9403 15.4141 20.9103 15.4298C20.8803 15.4455 20.8503 15.4611 20.8216 15.4768L20.2055 15.7796C19.6729 16.0198 19.1195 16.2234 18.5609 16.38ZM16.0183 6.18347C17.3653 6.18347 18.4617 7.27987 18.4617 8.62688C18.4617 9.97389 17.3653 11.0703 16.0183 11.0703C14.6713 11.0703 13.5749 9.97389 13.5749 8.62688C13.5749 7.27987 14.6713 6.18347 16.0183 6.18347Z" fill="#191919"/>
<path d="M34.064 28L44.304 5.60001H46.64L56.88 28H54.384L44.976 6.97601H45.936L36.528 28H34.064ZM38.096 22.016L38.8 20.096H51.824L52.528 22.016H38.096Z" fill="#191919"/>
<path d="M60.5855 28V5.60001H62.9535V28H60.5855Z" fill="#191919"/>
<path d="M70.2417 28V5.60001H78.6257C80.5244 5.60001 82.1564 5.90934 83.5217 6.52801C84.8871 7.12534 85.9324 8.00001 86.6577 9.15201C87.4044 10.2827 87.7777 11.6587 87.7777 13.28C87.7777 14.8587 87.4044 16.224 86.6577 17.376C85.9324 18.5067 84.8871 19.3813 83.5217 20C82.1564 20.5973 80.5244 20.896 78.6257 20.896H71.5537L72.6097 19.808V28H70.2417ZM85.5377 28L79.7777 19.872H82.3377L88.1297 28H85.5377ZM72.6097 20L71.5537 18.88H78.5617C80.8018 18.88 82.4977 18.3893 83.6497 17.408C84.8231 16.4267 85.4097 15.0507 85.4097 13.28C85.4097 11.488 84.8231 10.1013 83.6497 9.12001C82.4977 8.13867 80.8018 7.64801 78.5617 7.64801H71.5537L72.6097 6.52801V20Z" fill="#191919"/>
</svg>
