<svg width="24" height="24" viewBox="0 0 24 24" fill="none" xmlns="http://www.w3.org/2000/svg">
<g id="invoice / 24 / Outline">
<path id="Vector" d="M9.49999 10.4999H12C12.2652 10.4999 12.5196 10.3946 12.7071 10.2071C12.8946 10.0195 13 9.76516 13 9.49995C13 9.23473 12.8946 8.98038 12.7071 8.79284C12.5196 8.6053 12.2652 8.49995 12 8.49995H11V7.99995C11 7.73473 10.8946 7.48038 10.7071 7.29284C10.5196 7.1053 10.2652 6.99995 9.99999 6.99995C9.73478 6.99995 9.48042 7.1053 9.29289 7.29284C9.10535 7.48038 8.99999 7.73473 8.99999 7.99995V8.54995C8.39242 8.67332 7.85235 9.01805 7.48465 9.51721C7.11694 10.0164 6.94783 10.6344 7.01014 11.2512C7.07244 11.868 7.36173 12.4397 7.82183 12.8553C8.28193 13.2708 8.88002 13.5006 9.49999 13.4999H10.5C10.6326 13.4999 10.7598 13.5526 10.8535 13.6464C10.9473 13.7402 11 13.8673 11 13.9999C11 14.1326 10.9473 14.2597 10.8535 14.3535C10.7598 14.4473 10.6326 14.4999 10.5 14.4999H7.99999C7.73478 14.4999 7.48042 14.6053 7.29289 14.7928C7.10535 14.9804 6.99999 15.2347 6.99999 15.4999C6.99999 15.7652 7.10535 16.0195 7.29289 16.2071C7.48042 16.3946 7.73478 16.4999 7.99999 16.4999H8.99999V16.9999C8.99999 17.2652 9.10535 17.5195 9.29289 17.7071C9.48042 17.8946 9.73478 17.9999 9.99999 17.9999C10.2652 17.9999 10.5196 17.8946 10.7071 17.7071C10.8946 17.5195 11 17.2652 11 16.9999V16.4499C11.6076 16.3266 12.1476 15.9818 12.5153 15.4827C12.883 14.9835 13.0522 14.3655 12.9898 13.7487C12.9275 13.1319 12.6383 12.5602 12.1782 12.1446C11.7181 11.7291 11.12 11.4993 10.5 11.4999H9.49999C9.36738 11.4999 9.24021 11.4473 9.14644 11.3535C9.05267 11.2597 8.99999 11.1326 8.99999 10.9999C8.99999 10.8673 9.05267 10.7402 9.14644 10.6464C9.24021 10.5526 9.36738 10.4999 9.49999 10.4999ZM21 11.9999H18V2.99995C18.0007 2.82374 17.9548 2.65047 17.867 2.49769C17.7792 2.34491 17.6526 2.21805 17.5 2.12995C17.348 2.04218 17.1755 1.99597 17 1.99597C16.8245 1.99597 16.652 2.04218 16.5 2.12995L13.5 3.84995L10.5 2.12995C10.348 2.04218 10.1755 1.99597 9.99999 1.99597C9.82446 1.99597 9.65201 2.04218 9.49999 2.12995L6.49999 3.84995L3.49999 2.12995C3.34797 2.04218 3.17553 1.99597 2.99999 1.99597C2.82446 1.99597 2.65201 2.04218 2.49999 2.12995C2.34739 2.21805 2.22077 2.34491 2.13297 2.49769C2.04517 2.65047 1.99929 2.82374 1.99999 2.99995V18.9999C1.99999 19.7956 2.31606 20.5587 2.87867 21.1213C3.44128 21.6839 4.20434 21.9999 4.99999 21.9999H19C19.7956 21.9999 20.5587 21.6839 21.1213 21.1213C21.6839 20.5587 22 19.7956 22 18.9999V12.9999C22 12.7347 21.8946 12.4804 21.7071 12.2928C21.5196 12.1053 21.2652 11.9999 21 11.9999ZM4.99999 19.9999C4.73478 19.9999 4.48042 19.8946 4.29289 19.7071C4.10535 19.5195 3.99999 19.2652 3.99999 18.9999V4.72995L5.99999 5.86995C6.15433 5.95056 6.32587 5.99266 6.49999 5.99266C6.67411 5.99266 6.84566 5.95056 6.99999 5.86995L9.99999 4.14995L13 5.86995C13.1543 5.95056 13.3259 5.99266 13.5 5.99266C13.6741 5.99266 13.8457 5.95056 14 5.86995L16 4.72995V18.9999C16.0027 19.3411 16.0636 19.6793 16.18 19.9999H4.99999ZM20 18.9999C20 19.2652 19.8946 19.5195 19.7071 19.7071C19.5196 19.8946 19.2652 19.9999 19 19.9999C18.7348 19.9999 18.4804 19.8946 18.2929 19.7071C18.1053 19.5195 18 19.2652 18 18.9999V13.9999H20V18.9999Z" fill="black"/>
</g>
</svg>
