<svg width="24" height="24" viewBox="0 0 24 24" fill="none" xmlns="http://www.w3.org/2000/svg">
<path d="M8.81998 11.29C8.72625 11.3829 8.65186 11.4936 8.60109 11.6154C8.55032 11.7373 8.52418 11.868 8.52418 12C8.52418 12.132 8.55032 12.2627 8.60109 12.3846C8.65186 12.5064 8.72625 12.617 8.81998 12.71C9.00735 12.8962 9.2608 13.0008 9.52498 13.0008C9.78917 13.0008 10.0426 12.8962 10.23 12.71C10.3237 12.617 10.3981 12.5064 10.4489 12.3846C10.4996 12.2627 10.5258 12.132 10.5258 12C10.5258 11.868 10.4996 11.7373 10.4489 11.6154C10.3981 11.4936 10.3237 11.3829 10.23 11.29C10.0426 11.1037 9.78917 10.9992 9.52498 10.9992C9.2608 10.9992 9.00735 11.1037 8.81998 11.29ZM11.29 13.77C11.1037 13.9573 10.9992 14.2108 10.9992 14.475C10.9992 14.7392 11.1037 14.9926 11.29 15.18C11.3829 15.2737 11.4935 15.3481 11.6154 15.3989C11.7373 15.4496 11.868 15.4758 12 15.4758C12.132 15.4758 12.2627 15.4496 12.3846 15.3989C12.5064 15.3481 12.617 15.2737 12.71 15.18C12.8962 14.9926 13.0008 14.7392 13.0008 14.475C13.0008 14.2108 12.8962 13.9573 12.71 13.77C12.617 13.6763 12.5064 13.6019 12.3846 13.5511C12.2627 13.5003 12.132 13.4742 12 13.4742C11.868 13.4742 11.7373 13.5003 11.6154 13.5511C11.4935 13.6019 11.3829 13.6763 11.29 13.77ZM20.29 3.76999C19.2022 2.67321 17.7333 2.03824 16.1891 1.99726C14.6449 1.95628 13.1444 2.51245 12 3.54999C10.8608 2.52457 9.37245 1.97397 7.84021 2.01116C6.30796 2.04835 4.84804 2.67051 3.75998 3.74999C2.679 4.83983 2.05683 6.30253 2.02149 7.83714C1.98615 9.37175 2.54032 10.8615 3.56998 12C2.80016 12.8606 2.29502 13.9251 2.11519 15.0657C1.93537 16.2063 2.08849 17.3746 2.55618 18.4303C3.02388 19.4861 3.78627 20.3844 4.75189 21.0176C5.7175 21.6508 6.84531 21.9919 7.99998 22C9.48021 22.0016 10.9073 21.4486 12 20.45C13.1397 21.4783 14.6302 22.0307 16.1648 21.9935C17.6994 21.9563 19.1614 21.3324 20.25 20.25C21.3296 19.1588 21.9499 17.6954 21.9834 16.1608C22.0169 14.6262 21.461 13.1372 20.43 12C21.461 10.8628 22.0169 9.37373 21.9834 7.83913C21.9499 6.30453 21.3296 4.84113 20.25 3.74999L20.29 3.76999ZM18.83 5.16999C19.5254 5.88537 19.9284 6.83483 19.9598 7.83203C19.9913 8.82924 19.649 9.8022 19 10.56L13.44 4.99999C14.2044 4.36572 15.1744 4.03289 16.1672 4.06421C17.16 4.09552 18.1071 4.48881 18.83 5.16999ZM5.16998 18.83C4.47455 18.1146 4.07157 17.1651 4.04012 16.1679C4.00867 15.1707 4.35101 14.1978 4.99998 13.44L10.6 19.04C9.82709 19.678 8.8464 20.0092 7.84494 19.9705C6.84347 19.9318 5.89129 19.5258 5.16998 18.83ZM18.83 18.83C18.0707 19.5561 17.0606 19.9614 16.01 19.9614C14.9594 19.9614 13.9492 19.5561 13.19 18.83L5.18998 10.83C4.44498 10.0805 4.02681 9.06673 4.02681 8.00999C4.02681 6.95324 4.44498 5.93944 5.18998 5.18999C5.93943 4.44498 6.95324 4.02682 8.00998 4.02682C9.06673 4.02682 10.0805 4.44498 10.83 5.18999L18.83 13.19C19.575 13.9394 19.9932 14.9532 19.9932 16.01C19.9932 17.0667 19.575 18.0805 18.83 18.83ZM13.77 11.29C13.6763 11.3829 13.6019 11.4936 13.5511 11.6154C13.5003 11.7373 13.4742 11.868 13.4742 12C13.4742 12.132 13.5003 12.2627 13.5511 12.3846C13.6019 12.5064 13.6763 12.617 13.77 12.71C13.9573 12.8962 14.2108 13.0008 14.475 13.0008C14.7392 13.0008 14.9926 12.8962 15.18 12.71C15.2737 12.617 15.3481 12.5064 15.3989 12.3846C15.4496 12.2627 15.4758 12.132 15.4758 12C15.4758 11.868 15.4496 11.7373 15.3989 11.6154C15.3481 11.4936 15.2737 11.3829 15.18 11.29C14.9926 11.1037 14.7392 10.9992 14.475 10.9992C14.2108 10.9992 13.9573 11.1037 13.77 11.29ZM11.29 8.81999C11.1037 9.00735 10.9992 9.2608 10.9992 9.52499C10.9992 9.78917 11.1037 10.0426 11.29 10.23C11.3829 10.3237 11.4935 10.3981 11.6154 10.4489C11.7373 10.4996 11.868 10.5258 12 10.5258C12.132 10.5258 12.2627 10.4996 12.3846 10.4489C12.5064 10.3981 12.617 10.3237 12.71 10.23C12.8962 10.0426 13.0008 9.78917 13.0008 9.52499C13.0008 9.2608 12.8962 9.00735 12.71 8.81999C12.617 8.72626 12.5064 8.65186 12.3846 8.6011C12.2627 8.55033 12.132 8.52419 12 8.52419C11.868 8.52419 11.7373 8.55033 11.6154 8.6011C11.4935 8.65186 11.3829 8.72626 11.29 8.81999Z" fill="black"/>
</svg>
