<svg width="20" height="18" viewBox="0 0 20 18" fill="none" xmlns="http://www.w3.org/2000/svg">
<path d="M20 4.99999C19.9965 4.61675 19.8829 4.24259 19.6728 3.92204C19.4628 3.60149 19.165 3.34805 18.815 3.19188C18.465 3.03572 18.0775 2.9834 17.6987 3.04115C17.3198 3.09891 16.9655 3.26431 16.6779 3.51767C16.3904 3.77103 16.1816 4.10168 16.0766 4.47026C15.9716 4.83885 15.9747 5.22985 16.0855 5.59672C16.1964 5.9636 16.4103 6.2909 16.7018 6.53968C16.9934 6.78846 17.3502 6.94824 17.73 6.99999C17.9401 7.57997 18.0284 8.19702 17.9895 8.81266C17.9506 9.4283 17.7852 10.0293 17.5037 10.5782C17.2223 11.1271 16.8307 11.6121 16.3535 12.003C15.8762 12.3938 15.3236 12.6822 14.73 12.85C14.4663 12.243 14.0092 11.7402 13.43 11.42C14.2588 10.3917 14.7798 9.14989 14.9329 7.83803C15.0859 6.52618 14.8646 5.1978 14.2947 4.00636C13.7247 2.81492 12.8293 1.80902 11.7119 1.10489C10.5945 0.400751 9.30073 0.0270996 7.97998 0.0270996C6.65924 0.0270996 5.36543 0.400751 4.24804 1.10489C3.13065 1.80902 2.23526 2.81492 1.66531 4.00636C1.09536 5.1978 0.87411 6.52618 1.02712 7.83803C1.18012 9.14989 1.70114 10.3917 2.52998 11.42C2.07098 11.678 1.68796 12.0522 1.41939 12.505C1.15082 12.9579 1.00618 13.4735 0.999985 14V15C0.999985 15.7956 1.31606 16.5587 1.87866 17.1213C2.44127 17.6839 3.20433 18 3.99998 18H12C12.7956 18 13.5587 17.6839 14.1213 17.1213C14.6839 16.5587 15 15.7956 15 15V14.81C15.8976 14.6004 16.74 14.2014 17.4709 13.6398C18.2017 13.0782 18.8042 12.3669 19.2378 11.5535C19.6715 10.7402 19.9263 9.84358 19.9853 8.92374C20.0444 8.00391 19.9062 7.08208 19.58 6.21999C19.8509 5.87089 19.9986 5.44189 20 4.99999ZM13 15C13 15.2652 12.8946 15.5196 12.7071 15.7071C12.5196 15.8946 12.2652 16 12 16H3.99998C3.73477 16 3.48041 15.8946 3.29288 15.7071C3.10534 15.5196 2.99998 15.2652 2.99998 15V14C2.99998 13.7348 3.10534 13.4804 3.29288 13.2929C3.48041 13.1053 3.73477 13 3.99998 13H4.40998C5.49303 13.6546 6.73446 14.0007 7.99998 14.0007C9.26551 14.0007 10.5069 13.6546 11.59 13H12C12.2652 13 12.5196 13.1053 12.7071 13.2929C12.8946 13.4804 13 13.7348 13 14V15ZM7.99998 12C7.01108 12 6.04438 11.7067 5.22213 11.1573C4.39989 10.6079 3.75903 9.82704 3.38059 8.91341C3.00215 7.99978 2.90313 6.99444 3.09606 6.02454C3.28898 5.05464 3.76519 4.16372 4.46445 3.46446C5.16371 2.7652 6.05463 2.28899 7.02453 2.09607C7.99444 1.90314 8.99977 2.00216 9.9134 2.38059C10.827 2.75903 11.6079 3.39989 12.1573 4.22214C12.7067 5.04439 13 6.01109 13 6.99999C13 7.6566 12.8707 8.30678 12.6194 8.91341C12.3681 9.52004 11.9998 10.0712 11.5355 10.5355C11.0712 10.9998 10.52 11.3681 9.9134 11.6194C9.30677 11.8707 8.65659 12 7.99998 12ZM7.99998 5.99999C7.8022 5.99999 7.60886 6.05864 7.44441 6.16852C7.27996 6.2784 7.15179 6.43458 7.07611 6.61731C7.00042 6.80003 6.98061 7.0011 7.0192 7.19508C7.05778 7.38906 7.15303 7.56725 7.29288 7.7071C7.43273 7.84695 7.61091 7.94219 7.80489 7.98078C7.99888 8.01936 8.19994 7.99956 8.38267 7.92387C8.56539 7.84818 8.72157 7.72001 8.83145 7.55556C8.94134 7.39111 8.99998 7.19777 8.99998 6.99999C8.99998 6.73478 8.89463 6.48042 8.70709 6.29288C8.51956 6.10535 8.2652 5.99999 7.99998 5.99999Z" fill="black"/>
</svg>
