<svg width="12" height="20" viewBox="0 0 12 20" fill="none" xmlns="http://www.w3.org/2000/svg">
<path d="M1 8.9999H11C11.2652 8.9999 11.5196 8.89454 11.7071 8.707C11.8946 8.51947 12 8.26511 12 7.9999C12 7.73468 11.8946 7.48033 11.7071 7.29279C11.5196 7.10525 11.2652 6.9999 11 6.9999H7V3.4099L7.79 4.2099C7.88296 4.30363 7.99356 4.37802 8.11542 4.42879C8.23728 4.47956 8.36799 4.50569 8.5 4.50569C8.63201 4.50569 8.76272 4.47956 8.88458 4.42879C9.00644 4.37802 9.11704 4.30363 9.21 4.2099C9.30373 4.11693 9.37812 4.00633 9.42889 3.88447C9.47966 3.76261 9.5058 3.63191 9.5058 3.4999C9.5058 3.36788 9.47966 3.23718 9.42889 3.11532C9.37812 2.99346 9.30373 2.88286 9.21 2.7899L6.71 0.289896C6.6149 0.198856 6.50275 0.127491 6.38 0.0798963C6.13654 -0.0201217 5.86346 -0.0201217 5.62 0.0798963C5.49725 0.127491 5.3851 0.198856 5.29 0.289896L2.79 2.7899C2.6017 2.9782 2.49591 3.23359 2.49591 3.4999C2.49591 3.7662 2.6017 4.02159 2.79 4.2099C2.9783 4.3982 3.2337 4.50399 3.5 4.50399C3.7663 4.50399 4.0217 4.3982 4.21 4.2099L5 3.4099V6.9999H1C0.734784 6.9999 0.48043 7.10525 0.292893 7.29279C0.105357 7.48033 0 7.73468 0 7.9999C0 8.26511 0.105357 8.51947 0.292893 8.707C0.48043 8.89454 0.734784 8.9999 1 8.9999ZM11 10.9999H1C0.734784 10.9999 0.48043 11.1053 0.292893 11.2928C0.105357 11.4803 0 11.7347 0 11.9999C0 12.2651 0.105357 12.5195 0.292893 12.707C0.48043 12.8945 0.734784 12.9999 1 12.9999H5V16.5899L4.21 15.7899C4.11676 15.6967 4.00607 15.6227 3.88425 15.5722C3.76243 15.5218 3.63186 15.4958 3.5 15.4958C3.36814 15.4958 3.23757 15.5218 3.11575 15.5722C2.99393 15.6227 2.88324 15.6967 2.79 15.7899C2.69676 15.8831 2.6228 15.9938 2.57234 16.1156C2.52188 16.2375 2.49591 16.368 2.49591 16.4999C2.49591 16.6318 2.52188 16.7623 2.57234 16.8841C2.6228 17.006 2.69676 17.1167 2.79 17.2099L5.29 19.7099C5.3851 19.8009 5.49725 19.8723 5.62 19.9199C5.7397 19.9728 5.86913 20.0001 6 20.0001C6.13087 20.0001 6.2603 19.9728 6.38 19.9199C6.50275 19.8723 6.6149 19.8009 6.71 19.7099L9.21 17.2099C9.3983 17.0216 9.50409 16.7662 9.50409 16.4999C9.50409 16.2336 9.3983 15.9782 9.21 15.7899C9.0217 15.6016 8.7663 15.4958 8.5 15.4958C8.2337 15.4958 7.9783 15.6016 7.79 15.7899L7 16.5899V12.9999H11C11.2652 12.9999 11.5196 12.8945 11.7071 12.707C11.8946 12.5195 12 12.2651 12 11.9999C12 11.7347 11.8946 11.4803 11.7071 11.2928C11.5196 11.1053 11.2652 10.9999 11 10.9999Z" fill="black"/>
</svg>
