<?xml version="1.0" standalone="no"?>
<!DOCTYPE svg PUBLIC "-//W3C//DTD SVG 20010904//EN"
 "http://www.w3.org/TR/2001/REC-SVG-20010904/DTD/svg10.dtd">
<svg version="1.0" xmlns="http://www.w3.org/2000/svg"
 width="561.000000pt" height="547.000000pt" viewBox="0 0 561.000000 547.000000"
 preserveAspectRatio="xMidYMid meet">

<g transform="translate(0.000000,547.000000) scale(0.100000,-0.100000)"
fill="#000000" stroke="none">
<path d="M621 5440 c-296 -107 -381 -486 -158 -703 60 -59 115 -89 202 -112
97 -25 184 -15 283 33 290 141 319 552 51 731 -34 22 -84 48 -112 56 -72 21
-199 19 -266 -5z"/>
<path d="M660 4469 c-119 -23 -262 -130 -315 -236 -29 -56 -30 -62 -29 -198 0
-77 6 -252 12 -390 7 -137 12 -432 11 -655 0 -253 4 -431 11 -475 12 -79 40
-145 94 -224 20 -29 45 -85 57 -125 11 -39 31 -105 43 -146 l24 -75 -20 -75
c-45 -176 -97 -306 -336 -850 -193 -440 -233 -599 -178 -715 80 -173 328 -219
457 -85 40 41 51 62 79 151 56 182 106 296 295 678 101 205 202 420 225 477
44 115 90 270 90 306 1 57 17 50 92 -44 190 -234 332 -510 432 -839 39 -129
81 -336 92 -449 13 -143 66 -229 172 -281 63 -31 208 -34 262 -5 73 39 120
101 134 179 8 45 -16 247 -51 417 -142 695 -516 1322 -1053 1762 l-45 37 -3
340 c-2 188 0 341 4 341 3 0 62 -18 129 -39 145 -46 314 -86 440 -102 50 -6
105 -14 124 -18 34 -6 231 3 279 14 27 5 33 -6 561 -1047 294 -579 555 -1092
580 -1140 l46 -86 -27 -21 c-41 -33 -104 -134 -127 -203 -30 -93 -35 -162 -18
-244 50 -238 242 -394 483 -394 226 0 410 147 469 375 37 144 0 297 -102 422
l-43 53 38 19 c20 10 372 175 782 366 410 191 752 351 762 356 15 8 15 14 1
76 -8 38 -18 71 -22 76 -8 8 -56 -14 -1086 -493 l-650 -302 -57 13 c-35 7 -86
9 -130 5 -40 -3 -86 -7 -102 -9 -32 -2 47 -148 -965 1767 l-253 479 28 50 c23
42 27 63 27 122 0 123 -64 230 -171 282 -53 26 -63 27 -175 25 -221 -4 -451
52 -734 179 -120 55 -123 57 -123 140 0 63 -34 190 -67 250 -88 162 -267 244
-453 208z m3072 -3819 c68 -19 128 -119 112 -187 -26 -111 -157 -170 -245
-110 -53 36 -79 82 -79 142 0 66 29 112 90 143 49 25 68 27 122 12z"/>
<path d="M4222 3792 c-211 -102 -282 -141 -279 -152 7 -23 938 -1944 947
-1954 9 -9 582 264 578 275 -18 45 -954 1969 -958 1968 -3 0 -132 -62 -288
-137z"/>
<path d="M3255 3273 c-313 -151 -571 -276 -572 -278 -3 -1 373 -779 425 -882
l22 -41 392 190 c216 105 475 230 576 278 100 49 182 91 182 94 0 14 -438 910
-446 913 -5 1 -265 -122 -579 -274z"/>
<path d="M3765 2220 c-313 -152 -569 -282 -568 -288 2 -10 432 -903 439 -910
1 -2 58 23 126 56 513 247 1024 495 1027 498 6 5 -437 919 -447 921 -4 0 -263
-124 -577 -277z"/>
</g>
</svg>
