<svg width="24" height="24" viewBox="0 0 24 24" fill="none" xmlns="http://www.w3.org/2000/svg">
<path d="M18.69 1.99995C18.4248 1.99995 18.1704 2.1053 17.9829 2.29284C17.7954 2.48038 17.69 2.73473 17.69 2.99995V13.3699C17.69 13.9004 17.4793 14.4091 17.1042 14.7842C16.7292 15.1592 16.2204 15.3699 15.69 15.3699H7.69002L10.61 12.4499C10.7808 12.2636 10.8747 12.0195 10.8728 11.7667C10.8709 11.5139 10.7733 11.2712 10.5997 11.0875C10.4261 10.9037 10.1894 10.7925 9.93708 10.7763C9.68481 10.7601 9.43575 10.84 9.24002 10.9999L4.61002 15.6599C4.51874 15.7569 4.44437 15.8684 4.39002 15.9899C4.29 16.2334 4.29 16.5065 4.39002 16.7499C4.44058 16.8735 4.51539 16.9857 4.61002 17.0799L9.24002 21.7099C9.42628 21.8947 9.67768 21.9988 9.94002 21.9999C10.0716 22.0007 10.2021 21.9755 10.3239 21.9257C10.4458 21.876 10.5566 21.8026 10.65 21.7099C10.7437 21.617 10.8181 21.5064 10.8689 21.3845C10.9197 21.2627 10.9458 21.132 10.9458 20.9999C10.9458 20.8679 10.9197 20.7372 10.8689 20.6154C10.8181 20.4935 10.7437 20.3829 10.65 20.2899L7.73002 17.3699H15.73C16.7909 17.3699 17.8083 16.9485 18.5584 16.1984C19.3086 15.4482 19.73 14.4308 19.73 13.3699V2.99995C19.7301 2.86519 19.703 2.7318 19.6503 2.60779C19.5975 2.48378 19.5203 2.37171 19.4231 2.27831C19.326 2.18491 19.211 2.11211 19.085 2.06427C18.959 2.01644 18.8247 1.99456 18.69 1.99995Z" fill="black"/>
</svg>
