<svg width="220" height="36" viewBox="0 0 220 36" fill="none" xmlns="http://www.w3.org/2000/svg">
<path fill-rule="evenodd" clip-rule="evenodd" d="M17.8284 0C22.756 0 27.2114 1.99496 30.4366 5.22015L30.4432 5.2135C33.6684 8.43869 35.6634 12.9008 35.6634 17.8217C35.6634 22.3768 33.9544 26.5263 31.1481 29.6784C28.6145 32.5245 25.1765 34.5461 21.293 35.3108C21.2516 35.2358 21.2092 35.1608 21.1666 35.0855L21.1665 35.0852L21.1663 35.085C21.0995 34.9667 21.0321 34.8474 20.9671 34.7256H20.9605C20.7676 34.3732 20.5548 33.9476 20.3287 33.4821C20.209 33.2427 20.096 32.9967 19.9896 32.7506C19.963 32.6908 19.9364 32.6309 19.9098 32.5644C19.8965 32.5378 19.8832 32.5046 19.8699 32.4713C19.2116 30.8355 18.2074 27.8896 17.9614 24.5447C17.7153 27.9494 16.6713 30.9552 16.013 32.5644C16.013 32.5711 16.0096 32.5761 16.0063 32.5811C16.0044 32.5839 16.0025 32.5867 16.0013 32.5898C16.0003 32.5922 15.9997 32.5948 15.9997 32.5977C15.9664 32.6708 15.9332 32.7506 15.9066 32.8171C15.8866 32.8504 15.8733 32.8836 15.86 32.9169C15.8534 32.9302 15.8334 32.9634 15.8334 32.9634C15.747 33.1496 15.6605 33.3358 15.5674 33.522H15.5608C15.3761 33.9099 15.1856 34.2693 15.0159 34.5896L15.0159 34.5896L15.0158 34.5898L14.9756 34.6658C14.9623 34.6924 14.9473 34.7173 14.9323 34.7423C14.9174 34.7672 14.9024 34.7921 14.8891 34.8187C14.8541 34.8805 14.8204 34.9403 14.7878 34.9982L14.7877 34.9983C14.7149 35.1275 14.6475 35.2472 14.5832 35.3574C10.6066 34.6259 7.09544 32.5777 4.51528 29.685C1.70902 26.533 0 22.3835 0 17.8283C0 12.9008 1.99497 8.44534 5.22017 5.22015C8.44537 1.99496 12.9008 0 17.8284 0ZM17.9481 21.6387C18.0013 20.9604 18.0944 20.2755 18.2407 19.5905H18.254C18.3205 19.2713 18.4003 18.9588 18.4867 18.6529L18.6729 18.0544C19.6903 14.9955 21.7319 12.6281 24.7243 11.0255C24.7576 11.0055 24.8041 10.9856 24.844 10.9856C25.9812 10.2674 27.351 9.70216 28.9138 9.28987C28.9337 9.28589 28.973 9.27686 29.0274 9.26437C29.245 9.21438 29.7037 9.10901 30.124 9.05048C29.6386 8.37219 29.1 7.74045 28.5148 7.15526C25.7817 4.42217 22.0045 2.7331 17.835 2.7331C13.6655 2.7331 9.8884 4.42217 7.15529 7.15526C6.57675 7.7338 6.04476 8.35889 5.56596 9.02388C6.07804 9.06605 6.74293 9.22829 6.94753 9.27821L6.99569 9.28987C8.55842 9.70216 9.9283 10.2741 11.0654 10.9856C11.1053 10.9922 11.1452 11.0055 11.1851 11.0255C14.1776 12.6281 16.2125 14.9955 17.2365 18.0544L17.4227 18.6529C17.5092 18.9588 17.589 19.2713 17.6555 19.5905C17.8018 20.2755 17.8949 20.9604 17.9481 21.6387ZM11.9166 17.1434C11.8368 17.1035 11.7637 17.0636 11.6905 17.0237H11.6972C8.77122 15.4078 6.47035 12.8077 5.20687 9.69551L5.16697 9.59577C3.62419 11.9631 2.72646 14.7893 2.72646 17.8217C2.72646 21.6387 4.14289 25.1232 6.477 27.7832C7.95328 29.4722 9.80195 30.8222 11.8967 31.7132C13.3596 28.242 15.1884 23.2413 14.8492 18.8391C14.8359 18.6595 14.816 18.4733 14.796 18.2938C14.0845 18.0943 13.3796 17.835 12.7013 17.5291L11.9166 17.1434ZM14.663 17.4759C13.8783 13.4926 10.9856 10.9257 6.07136 9.83516C7.29494 12.5949 9.40961 14.9157 12.043 16.3653C12.0698 16.3798 12.0973 16.3949 12.1253 16.4103C12.1873 16.4443 12.2514 16.4796 12.3156 16.5116L12.3555 16.5316C13.087 16.9173 13.865 17.2298 14.663 17.4759ZM23.8465 16.3653C26.4799 14.909 28.5946 12.5949 29.8181 9.83516C24.9039 10.9257 22.0112 13.4926 21.2265 17.4759C22.0178 17.2298 22.7959 16.9106 23.534 16.5316C23.5384 16.5294 23.5428 16.5264 23.5473 16.5235L23.5473 16.5235C23.5562 16.5175 23.565 16.5116 23.5739 16.5116C23.667 16.4651 23.7534 16.4185 23.8465 16.3653ZM21.0935 18.2938C21.0735 18.4733 21.0536 18.6595 21.0403 18.8391H21.0336C20.6945 23.2081 22.4966 28.1622 23.9529 31.6268C25.9612 30.7357 27.7434 29.4124 29.1731 27.7832C31.5072 25.1232 32.9236 21.6387 32.9236 17.8217C32.9236 14.8824 32.0791 12.1427 30.6294 9.82186C29.3593 12.8742 27.085 15.4344 24.199 17.0237C24.1624 17.0436 24.1242 17.0636 24.0859 17.0835C24.0477 17.1035 24.0095 17.1234 23.9729 17.1434L23.1882 17.5291C22.5099 17.835 21.805 18.0943 21.0935 18.2938ZM17.8542 5.30493C19.5698 5.30493 20.9663 6.70141 20.9663 8.41708C20.9663 10.1327 19.5698 11.5292 17.8542 11.5292C16.1385 11.5292 14.742 10.1327 14.742 8.41708C14.742 6.70141 16.1385 5.30493 17.8542 5.30493ZM45.8937 17.4293L52.415 3.16395H53.9026L60.4239 17.4293H58.8344L57.129 13.6184H49.1682L47.4629 17.4293H45.8937ZM53.1486 4.72336L56.5819 12.3957H49.7154L53.1486 4.72336ZM68.8411 17.5516C67.7542 17.5516 66.7489 17.3749 65.825 17.0217C64.9148 16.6549 64.12 16.1454 63.4407 15.4933C62.775 14.8411 62.2519 14.0735 61.8715 13.1904C61.5047 12.3073 61.3212 11.3427 61.3212 10.2966C61.3212 9.25049 61.5047 8.28588 61.8715 7.40279C62.2519 6.5197 62.7817 5.75209 63.461 5.09996C64.1404 4.44783 64.9351 3.94515 65.8454 3.59191C66.7692 3.22509 67.7746 3.04168 68.8615 3.04168C69.9484 3.04168 70.9402 3.2115 71.8368 3.55115C72.7471 3.8908 73.5215 4.40707 74.16 5.09996L73.2226 6.05777C72.6248 5.45999 71.9659 5.03203 71.2458 4.77389C70.5258 4.51576 69.7514 4.38669 68.9226 4.38669C68.0395 4.38669 67.2244 4.53614 66.4771 4.83503C65.7435 5.12034 65.0982 5.53471 64.5411 6.07815C63.9977 6.60801 63.5697 7.23297 63.2573 7.95303C62.9584 8.6595 62.8089 9.4407 62.8089 10.2966C62.8089 11.139 62.9584 11.9201 63.2573 12.6402C63.5697 13.3603 63.9977 13.992 64.5411 14.5355C65.0982 15.0653 65.7435 15.4797 66.4771 15.7786C67.2244 16.0639 68.0327 16.2065 68.9023 16.2065C69.7174 16.2065 70.485 16.0843 71.2051 15.8397C71.7095 15.6716 72.185 15.4232 72.6316 15.0945V10.2966H74.0785V15.7378C73.3992 16.3356 72.6044 16.7907 71.6942 17.1032C70.7839 17.4021 69.8329 17.5516 68.8411 17.5516ZM79.8547 16.125V10.8265H87.2319V9.54259H79.8547V4.46821H88.1286V3.16395H78.3467V17.4293H88.4343V16.125H79.8547ZM97.3127 17.4293V3.16395H98.8208V17.4293H97.3127ZM103.462 17.4293V3.16395H104.705L113.896 14.7335V3.16395H115.384V17.4293H114.141L104.97 5.86143V17.4293H103.462ZM125.374 17.4293V3.16395H130.713C131.922 3.16395 132.962 3.36095 133.831 3.75494C134.701 4.13535 135.366 4.69238 135.828 5.42602C136.304 6.14608 136.541 7.02238 136.541 8.05492C136.541 9.06029 136.304 9.92979 135.828 10.6634C135.366 11.3835 134.701 11.9405 133.831 12.3345C133.655 12.4114 133.473 12.4806 133.283 12.5419L136.766 17.4293H135.115L131.864 12.8419C131.499 12.8841 131.115 12.9051 130.713 12.9051H126.882V17.4293H125.374ZM130.672 11.6213H126.882V4.46821H130.672C132.099 4.46821 133.179 4.78069 133.913 5.40564C134.66 6.0306 135.033 6.91369 135.033 8.05492C135.033 9.18256 134.66 10.0589 133.913 10.6838C133.179 11.3088 132.099 11.6213 130.672 11.6213ZM141.609 16.125V10.8265H148.986V9.54259H141.609V4.46821H149.883V3.16395H140.101V17.4293H150.188V16.125H141.609ZM157.59 17.4293L151.272 3.16395H152.902L158.366 15.5784L163.866 3.16395H165.395L159.077 17.4293H157.59ZM168.973 16.125V10.8265H176.35V9.54259H168.973V4.46821H177.247V3.16395H167.465V17.4293H177.553V16.125H168.973ZM181.098 17.4293V3.16395H186.437C187.646 3.16395 188.685 3.36095 189.555 3.75494C190.424 4.13535 191.09 4.69238 191.552 5.42602C192.028 6.14608 192.265 7.02238 192.265 8.05492C192.265 9.06029 192.028 9.92979 191.552 10.6634C191.09 11.3835 190.424 11.9405 189.555 12.3345C189.379 12.4114 189.196 12.4806 189.007 12.5419L192.49 17.4293H190.839L187.588 12.8419C187.223 12.8841 186.839 12.9051 186.437 12.9051H182.606V17.4293H181.098ZM186.396 11.6213H182.606V4.46821H186.396C187.823 4.46821 188.903 4.78069 189.636 5.40564C190.384 6.0306 190.757 6.91369 190.757 8.05492C190.757 9.18256 190.384 10.0589 189.636 10.6838C188.903 11.3088 187.823 11.6213 186.396 11.6213ZM199.758 17.5516C198.698 17.5516 197.679 17.3817 196.701 17.0421C195.736 16.6888 194.989 16.2405 194.459 15.6971L195.05 14.5355C195.553 15.0246 196.225 15.4389 197.068 15.7786C197.924 16.1046 198.82 16.2677 199.758 16.2677C200.655 16.2677 201.381 16.159 201.938 15.9416C202.509 15.7106 202.923 15.405 203.182 15.0246C203.453 14.6441 203.589 14.223 203.589 13.7611C203.589 13.204 203.426 12.7557 203.1 12.416C202.788 12.0764 202.373 11.8115 201.857 11.6213C201.341 11.4175 200.77 11.2408 200.145 11.0914C199.52 10.942 198.895 10.7857 198.27 10.6227C197.645 10.4461 197.068 10.2151 196.538 9.92979C196.022 9.64449 195.601 9.27087 195.274 8.80895C194.962 8.33344 194.806 7.71527 194.806 6.95445C194.806 6.24798 194.989 5.60264 195.356 5.01844C195.736 4.42066 196.314 3.94515 197.088 3.59191C197.863 3.22509 198.854 3.04168 200.064 3.04168C200.865 3.04168 201.66 3.15716 202.448 3.38812C203.236 3.6055 203.915 3.91118 204.486 4.30518L203.976 5.50754C203.365 5.09996 202.713 4.80107 202.02 4.61086C201.341 4.42066 200.682 4.32556 200.043 4.32556C199.187 4.32556 198.481 4.44104 197.924 4.672C197.367 4.90296 196.952 5.21544 196.681 5.60944C196.422 5.98984 196.293 6.4246 196.293 6.91369C196.293 7.47072 196.45 7.91906 196.762 8.25871C197.088 8.59836 197.509 8.86329 198.026 9.05349C198.555 9.2437 199.133 9.41352 199.758 9.56297C200.383 9.71242 201.001 9.87545 201.612 10.0521C202.237 10.2287 202.808 10.4596 203.324 10.745C203.854 11.0167 204.275 11.3835 204.588 11.8454C204.914 12.3073 205.077 12.9119 205.077 13.6592C205.077 14.352 204.887 14.9974 204.506 15.5952C204.126 16.1794 203.542 16.6549 202.754 17.0217C201.979 17.3749 200.981 17.5516 199.758 17.5516ZM209.871 16.125V10.8265H217.248V9.54259H209.871V4.46821H218.145V3.16395H208.363V17.4293H218.45V16.125H209.871ZM49.0371 26.5287V34.6293H49.9797V26.5287H53.113V25.7135H45.9039V26.5287H49.0371ZM62.0698 25.7135H61.14V29.6874H55.5612V25.7135H54.6187V34.6293H55.5612V30.5153H61.14V34.6293H62.0698V25.7135ZM65.9224 30.5026V33.8142H71.2846V34.6293H64.9799V25.7135H71.0936V26.5287H65.9224V29.7002H70.5332V30.5026H65.9224ZM77.7762 30.8465V34.6293H76.8336V25.7135H82.9474V26.5287H77.7762V30.0313H82.3869V30.8465H77.7762ZM85.798 33.725C86.4519 34.3788 87.3477 34.7058 88.4855 34.7058C89.6234 34.7058 90.5149 34.3788 91.1603 33.725C91.8141 33.0712 92.141 32.1032 92.141 30.821V25.7135H91.224V30.7828C91.224 31.8357 90.9862 32.6127 90.5107 33.1136C90.0352 33.6146 89.3601 33.8651 88.4855 33.8651C87.6194 33.8651 86.9486 33.6146 86.4731 33.1136C85.9976 32.6127 85.7598 31.8357 85.7598 30.7828V25.7135H84.8173V30.821C84.8173 32.1032 85.1442 33.0712 85.798 33.725ZM96.5393 26.5287V34.6293H97.4819V26.5287H100.615V25.7135H93.406V26.5287H96.5393ZM102.851 33.725C103.505 34.3788 104.401 34.7058 105.539 34.7058C106.676 34.7058 107.568 34.3788 108.213 33.725C108.867 33.0712 109.194 32.1032 109.194 30.821V25.7135H108.277V30.7828C108.277 31.8357 108.039 32.6127 107.564 33.1136C107.088 33.6146 106.413 33.8651 105.539 33.8651C104.672 33.8651 104.002 33.6146 103.526 33.1136C103.051 32.6127 102.813 31.8357 102.813 30.7828V25.7135H101.87V30.821C101.87 32.1032 102.197 33.0712 102.851 33.725ZM112.034 25.7135V34.6293H112.977V31.8017H115.371C115.623 31.8017 115.863 31.7886 116.091 31.7622L118.123 34.6293H119.154L116.977 31.5747C117.096 31.5364 117.21 31.4932 117.32 31.4451C117.864 31.1989 118.28 30.8507 118.568 30.4007C118.865 29.9422 119.014 29.3987 119.014 28.7704C119.014 28.125 118.865 27.5773 118.568 27.1273C118.28 26.6688 117.864 26.3206 117.32 26.0829C116.777 25.8366 116.127 25.7135 115.371 25.7135H112.034ZM112.977 30.9993H115.346C116.237 30.9993 116.912 30.804 117.371 30.4134C117.838 30.0228 118.072 29.4751 118.072 28.7704C118.072 28.0571 117.838 27.5052 117.371 27.1146C116.912 26.724 116.237 26.5287 115.346 26.5287H112.977V30.9993ZM122.181 30.5026V33.8142H127.543V34.6293H121.239V25.7135H127.352V26.5287H122.181V29.7002H126.792V30.5026H122.181ZM135.118 34.3746C135.695 34.5954 136.319 34.7058 136.99 34.7058C137.661 34.7058 138.281 34.5954 138.85 34.3746C139.418 34.1453 139.911 33.8269 140.327 33.4193C140.752 33.0117 141.078 32.532 141.308 31.9801C141.546 31.4281 141.664 30.8252 141.664 30.1714C141.664 29.5176 141.546 28.9147 141.308 28.3628C141.078 27.8108 140.752 27.3311 140.327 26.9235C139.911 26.5159 139.418 26.2018 138.85 25.981C138.281 25.7517 137.661 25.6371 136.99 25.6371C136.311 25.6371 135.687 25.7517 135.118 25.981C134.549 26.2018 134.052 26.5202 133.627 26.9362C133.211 27.3438 132.884 27.8236 132.647 28.3755C132.417 28.919 132.303 29.5176 132.303 30.1714C132.303 30.8252 132.417 31.4281 132.647 31.9801C132.884 32.5235 133.211 33.0033 133.627 33.4193C134.052 33.8269 134.549 34.1453 135.118 34.3746ZM138.467 33.5976C138.017 33.776 137.525 33.8651 136.99 33.8651C136.455 33.8651 135.958 33.776 135.5 33.5976C135.041 33.4108 134.642 33.1519 134.302 32.8207C133.971 32.481 133.708 32.0862 133.513 31.6362C133.326 31.1861 133.233 30.6979 133.233 30.1714C133.233 29.6365 133.326 29.1482 133.513 28.7067C133.708 28.2566 133.971 27.866 134.302 27.5349C134.642 27.1952 135.041 26.9362 135.5 26.7579C135.958 26.5711 136.455 26.4777 136.99 26.4777C137.525 26.4777 138.017 26.5711 138.467 26.7579C138.926 26.9362 139.321 27.1952 139.652 27.5349C139.992 27.866 140.255 28.2566 140.442 28.7067C140.628 29.1482 140.722 29.6365 140.722 30.1714C140.722 30.7064 140.628 31.1989 140.442 31.6489C140.255 32.0904 139.992 32.481 139.652 32.8207C139.321 33.1519 138.926 33.4108 138.467 33.5976ZM144.72 30.8465V34.6293H143.777V25.7135H149.891V26.5287H144.72V30.0313H149.33V30.8465H144.72ZM157.298 31.5493V34.6293H158.227V31.5493L161.794 25.7135H160.851L157.794 30.7146L154.738 25.7135H153.731L157.298 31.5493ZM164.895 34.3746C165.473 34.5954 166.097 34.7058 166.767 34.7058C167.438 34.7058 168.058 34.5954 168.627 34.3746C169.196 34.1453 169.688 33.8269 170.104 33.4193C170.529 33.0117 170.856 32.532 171.085 31.9801C171.323 31.4281 171.442 30.8252 171.442 30.1714C171.442 29.5176 171.323 28.9147 171.085 28.3628C170.856 27.8108 170.529 27.3311 170.104 26.9235C169.688 26.5159 169.196 26.2018 168.627 25.981C168.058 25.7517 167.438 25.6371 166.767 25.6371C166.088 25.6371 165.464 25.7517 164.895 25.981C164.326 26.2018 163.829 26.5202 163.405 26.9362C162.989 27.3438 162.662 27.8236 162.424 28.3755C162.195 28.919 162.08 29.5176 162.08 30.1714C162.08 30.8252 162.195 31.4281 162.424 31.9801C162.662 32.5235 162.989 33.0033 163.405 33.4193C163.829 33.8269 164.326 34.1453 164.895 34.3746ZM168.245 33.5976C167.795 33.776 167.302 33.8651 166.767 33.8651C166.232 33.8651 165.736 33.776 165.277 33.5976C164.819 33.4108 164.42 33.1519 164.08 32.8207C163.749 32.481 163.486 32.0862 163.29 31.6362C163.103 31.1861 163.01 30.6979 163.01 30.1714C163.01 29.6365 163.103 29.1482 163.29 28.7067C163.486 28.2566 163.749 27.866 164.08 27.5349C164.42 27.1952 164.819 26.9362 165.277 26.7579C165.736 26.5711 166.232 26.4777 166.767 26.4777C167.302 26.4777 167.795 26.5711 168.245 26.7579C168.703 26.9362 169.098 27.1952 169.429 27.5349C169.769 27.866 170.032 28.2566 170.219 28.7067C170.406 29.1482 170.499 29.6365 170.499 30.1714C170.499 30.7064 170.406 31.1989 170.219 31.6489C170.032 32.0904 169.769 32.481 169.429 32.8207C169.098 33.1519 168.703 33.4108 168.245 33.5976ZM174.459 33.725C175.113 34.3788 176.008 34.7058 177.146 34.7058C178.284 34.7058 179.176 34.3788 179.821 33.725C180.475 33.0712 180.802 32.1032 180.802 30.821V25.7135H179.885V30.7828C179.885 31.8357 179.647 32.6127 179.171 33.1136C178.696 33.6146 178.021 33.8651 177.146 33.8651C176.28 33.8651 175.609 33.6146 175.134 33.1136C174.658 32.6127 174.421 31.8357 174.421 30.7828V25.7135H173.478V30.821C173.478 32.1032 173.805 33.0712 174.459 33.725ZM187.752 25.7135H186.976V34.6293H187.918V27.3994L193.65 34.6293H194.427V25.7135H193.497V32.9445L187.752 25.7135ZM199.362 34.3746C199.939 34.5954 200.563 34.7058 201.234 34.7058C201.905 34.7058 202.525 34.5954 203.094 34.3746C203.663 34.1453 204.155 33.8269 204.571 33.4193C204.996 33.0117 205.323 32.532 205.552 31.9801C205.79 31.4281 205.909 30.8252 205.909 30.1714C205.909 29.5176 205.79 28.9147 205.552 28.3628C205.323 27.8108 204.996 27.3311 204.571 26.9235C204.155 26.5159 203.663 26.2018 203.094 25.981C202.525 25.7517 201.905 25.6371 201.234 25.6371C200.555 25.6371 199.931 25.7517 199.362 25.981C198.793 26.2018 198.296 26.5202 197.872 26.9362C197.456 27.3438 197.129 27.8236 196.891 28.3755C196.662 28.919 196.547 29.5176 196.547 30.1714C196.547 30.8252 196.662 31.4281 196.891 31.9801C197.129 32.5235 197.456 33.0033 197.872 33.4193C198.296 33.8269 198.793 34.1453 199.362 34.3746ZM202.712 33.5976C202.262 33.776 201.769 33.8651 201.234 33.8651C200.699 33.8651 200.202 33.776 199.744 33.5976C199.285 33.4108 198.886 33.1519 198.547 32.8207C198.216 32.481 197.952 32.0862 197.757 31.6362C197.57 31.1861 197.477 30.6979 197.477 30.1714C197.477 29.6365 197.57 29.1482 197.757 28.7067C197.952 28.2566 198.216 27.866 198.547 27.5349C198.886 27.1952 199.285 26.9362 199.744 26.7579C200.202 26.5711 200.699 26.4777 201.234 26.4777C201.769 26.4777 202.262 26.5711 202.712 26.7579C203.17 26.9362 203.565 27.1952 203.896 27.5349C204.236 27.866 204.499 28.2566 204.686 28.7067C204.873 29.1482 204.966 29.6365 204.966 30.1714C204.966 30.7064 204.873 31.1989 204.686 31.6489C204.499 32.0904 204.236 32.481 203.896 32.8207C203.565 33.1519 203.17 33.4108 202.712 33.5976ZM207.747 25.7135H206.779L209.785 34.6293H210.766L213.389 27.0382L216.001 34.6293H216.994L220 25.7135H219.096L216.484 33.4326L213.848 25.7135H212.982L210.324 33.3968L207.747 25.7135Z" fill="white"/>
</svg>
